<svg width="24" height="24" viewBox="0 0 24 24" fill="none" xmlns="http://www.w3.org/2000/svg">
<g id="ic/24/social/facebook">
<path id="Shape" fill-rule="evenodd" clip-rule="evenodd" d="M16.5 0H1.5C0.659912 0 0 0.660034 0 1.5V16.5C0 17.34 0.659912 18 1.5 18H8.3999H12H16.5C17.3401 18 18 17.34 18 16.5V1.5C18 0.660034 17.3401 0 16.5 0ZM9.052 11.2609H6.80005V8.96521H9.052V6.95654C9.052 5.32092 10.2905 3.94348 11.8667 3.80005H14.4001V6.0957H12.1482C11.6697 6.0957 11.3037 6.46875 11.3037 6.95654V8.96521H14.1187V11.2609H11.3037V17.2001H9.052V11.2609ZM11.9287 17.2001H16.3215C16.8193 17.2001 17.2 16.8193 17.2002 16.3215V1.67859C17.2002 1.18079 16.8193 0.800049 16.3215 0.800049H1.67871C1.18066 0.800049 0.800049 1.18079 0.800049 1.67859V16.3215C0.800049 16.8193 1.18066 17.2001 1.67871 17.2001H8.41431V11.9286H6.07153V8.41431H8.41431V6.95007C8.41431 4.98792 9.93726 3.3186 11.8994 3.14294H15.1501V6.65723H12.2214C12.0457 6.65723 11.9287 6.77429 11.9287 6.95007V8.41431H14.8572V11.9286H11.9287V17.2001Z" transform="translate(3 3)" fill="white"/>
<mask id="mask0" mask-type="alpha" maskUnits="userSpaceOnUse" x="3" y="3" width="18" height="18">
<path id="Shape_2" fill-rule="evenodd" clip-rule="evenodd" d="M16.5 0H1.5C0.659912 0 0 0.660034 0 1.5V16.5C0 17.34 0.659912 18 1.5 18H8.3999H12H16.5C17.3401 18 18 17.34 18 16.5V1.5C18 0.660034 17.3401 0 16.5 0ZM9.052 11.2609H6.80005V8.96521H9.052V6.95654C9.052 5.32092 10.2905 3.94348 11.8667 3.80005H14.4001V6.0957H12.1482C11.6697 6.0957 11.3037 6.46875 11.3037 6.95654V8.96521H14.1187V11.2609H11.3037V17.2001H9.052V11.2609ZM11.9287 17.2001H16.3215C16.8193 17.2001 17.2 16.8193 17.2002 16.3215V1.67859C17.2002 1.18079 16.8193 0.800049 16.3215 0.800049H1.67871C1.18066 0.800049 0.800049 1.18079 0.800049 1.67859V16.3215C0.800049 16.8193 1.18066 17.2001 1.67871 17.2001H8.41431V11.9286H6.07153V8.41431H8.41431V6.95007C8.41431 4.98792 9.93726 3.3186 11.8994 3.14294H15.1501V6.65723H12.2214C12.0457 6.65723 11.9287 6.77429 11.9287 6.95007V8.41431H14.8572V11.9286H11.9287V17.2001Z" transform="translate(3 3)" fill="white"/>
</mask>
<g mask="url(#mask0)">
</g>
</g>
</svg>
