<svg width="24" height="24" viewBox="0 0 24 24" fill="none" xmlns="http://www.w3.org/2000/svg">
<g id="ic/24/social/facebook">
<path id="Shape" fill-rule="evenodd" clip-rule="evenodd" d="M16.5 0H1.5C0.660156 0 0 0.660034 0 1.5V16.5C0 17.34 0.660156 18 1.5 18H8.3999H12H16.5C17.3398 18 18 17.34 18 16.5V1.5C18 0.660034 17.3398 0 16.5 0ZM9.05176 11.2609H6.7998V8.96521H9.05176V6.95654C9.05176 5.32092 10.29 3.94348 11.8667 3.80005H14.3999V6.0957H12.1479C11.6694 6.0957 11.3037 6.46875 11.3037 6.95654V8.96521H14.1182V11.2609H11.3037V17.2001H9.05176V11.2609ZM11.9282 17.2001H16.3213C16.8193 17.2001 17.1997 16.8193 17.1997 16.3215V1.67859C17.1997 1.18079 16.8193 0.800049 16.3213 0.800049H1.67822C1.18066 0.800049 0.799805 1.18079 0.799805 1.67859V16.3215C0.799805 16.8193 1.18066 17.2001 1.67822 17.2001H8.41406V11.9286H6.07129V8.41431H8.41406V6.95007C8.41406 4.98792 9.93701 3.3186 11.8989 3.14294H15.1499V6.65723H12.2212C12.0454 6.65723 11.9282 6.77429 11.9282 6.95007V8.41431H14.8569V11.9286H11.9282V17.2001Z" transform="translate(3 3)" fill="white"/>
<mask id="mask0" mask-type="alpha" maskUnits="userSpaceOnUse" x="3" y="3" width="18" height="18">
<path id="Shape_2" fill-rule="evenodd" clip-rule="evenodd" d="M16.5 0H1.5C0.660156 0 0 0.660034 0 1.5V16.5C0 17.34 0.660156 18 1.5 18H8.3999H12H16.5C17.3398 18 18 17.34 18 16.5V1.5C18 0.660034 17.3398 0 16.5 0ZM9.05176 11.2609H6.7998V8.96521H9.05176V6.95654C9.05176 5.32092 10.29 3.94348 11.8667 3.80005H14.3999V6.0957H12.1479C11.6694 6.0957 11.3037 6.46875 11.3037 6.95654V8.96521H14.1182V11.2609H11.3037V17.2001H9.05176V11.2609ZM11.9282 17.2001H16.3213C16.8193 17.2001 17.1997 16.8193 17.1997 16.3215V1.67859C17.1997 1.18079 16.8193 0.800049 16.3213 0.800049H1.67822C1.18066 0.800049 0.799805 1.18079 0.799805 1.67859V16.3215C0.799805 16.8193 1.18066 17.2001 1.67822 17.2001H8.41406V11.9286H6.07129V8.41431H8.41406V6.95007C8.41406 4.98792 9.93701 3.3186 11.8989 3.14294H15.1499V6.65723H12.2212C12.0454 6.65723 11.9282 6.77429 11.9282 6.95007V8.41431H14.8569V11.9286H11.9282V17.2001Z" transform="translate(3 3)" fill="white"/>
</mask>
<g mask="url(#mask0)">
</g>
</g>
</svg>
