<svg width="24" height="24" viewBox="0 0 24 24" fill="none" xmlns="http://www.w3.org/2000/svg">
<g id="ic/24/social/instagram">
<path id="Combined Shape" fill-rule="evenodd" clip-rule="evenodd" d="M13.0327 0H4.96729C2.22852 0 0 2.22839 0 4.96735V13.0326C0 15.7717 2.22852 18 4.96729 18H13.0327C15.7715 18 18 15.7716 18 13.0326V4.96735C18 2.22839 15.7715 0 13.0327 0ZM17 13.3579C17 15.3662 15.3662 17 13.3579 17H4.64209C2.63379 17.0001 1 15.3662 1 13.3579V4.64209C1 2.63391 2.63379 1 4.64209 1H13.3579C15.3662 1 17 2.63391 17 4.64209V13.3579ZM4.36182 9.00024C4.36182 6.44275 6.44238 4.36206 9 4.36206C11.5576 4.36206 13.6382 6.44275 13.6382 9.00024C13.6382 11.5576 11.5576 13.6382 9 13.6382C6.44238 13.6382 4.36182 11.5576 4.36182 9.00024ZM13.7686 2.63458C13.8433 2.61188 13.9214 2.59998 14 2.59998C14.2109 2.59998 14.4175 2.68506 14.5659 2.83417C14.7153 2.98254 14.8003 3.18909 14.8003 3.39996C14.8003 3.61017 14.7153 3.81671 14.5659 3.96582C14.417 4.11414 14.2109 4.19995 14 4.19995C13.79 4.19995 13.5835 4.11414 13.4351 3.96582C13.2861 3.81671 13.2002 3.61023 13.2002 3.39996C13.2002 3.18909 13.2861 2.98254 13.4351 2.83417C13.5278 2.74084 13.6436 2.67255 13.7686 2.63458Z" transform="translate(3 3)" fill="white"/>
<mask id="mask0" mask-type="alpha" maskUnits="userSpaceOnUse" x="7" y="5" width="11" height="12">
<path id="Combined Shape_2" fill-rule="evenodd" clip-rule="evenodd" d="M9.40674 0.0346069C9.48145 0.0119019 9.55957 0 9.63818 0C9.84912 0 10.0557 0.085083 10.2041 0.234192C10.3535 0.382568 10.4385 0.589111 10.4385 0.799988C10.4385 1.01019 10.3535 1.21674 10.2041 1.36584C10.0552 1.51416 9.84912 1.59998 9.63818 1.59998C9.42822 1.59998 9.22168 1.51416 9.07324 1.36584C8.92432 1.21674 8.83838 1.01025 8.83838 0.799988C8.83838 0.589111 8.92432 0.382568 9.07324 0.234192C9.16602 0.140869 9.28174 0.0725708 9.40674 0.0346069ZM4.63818 1.76208C2.08057 1.76208 0 3.84277 0 6.40027C0 8.95764 2.08057 11.0382 4.63818 11.0382C7.1958 11.0382 9.27637 8.95764 9.27637 6.40027C9.27637 3.84277 7.1958 1.76208 4.63818 1.76208ZM4.63818 10.2397C2.521 10.2397 0.79834 8.51733 0.79834 6.40002C0.79834 4.28259 2.521 2.56 4.63818 2.56C6.75586 2.56 8.47852 4.28259 8.47852 6.40002C8.47852 8.51733 6.75586 10.2397 4.63818 10.2397Z" transform="translate(7.36182 5.59998)" fill="white"/>
</mask>
<g mask="url(#mask0)">
</g>
</g>
</svg>
