<svg width="121" height="14" viewBox="0 0 121 14" fill="none" xmlns="http://www.w3.org/2000/svg">
<g id="logo">
<g id="XMLID_234_">
<path id="XMLID_243_" d="M9.03846 0.288462V6.92308C9.03846 9.13462 8.07692 10.0481 5.76923 10.0481C3.46154 10.0481 2.5 9.13462 2.5 6.92308V0H0.288462C0.144231 0 0 0.144231 0 0.288462V7.01923C0 10.7212 2.35577 12.0192 5.76923 12.0192C9.18269 12.0192 11.5385 10.7212 11.5385 7.01923V0H9.32692C9.18269 0 9.03846 0.0961538 9.03846 0.288462Z" transform="translate(0.384613 1.24039)" fill="black"/>
<path id="XMLID_242_" d="M9.23077 1.92308C9.42308 1.92308 9.51923 1.875 9.56731 1.73077L10.1923 0.144231C10.2404 0.0480769 10.1923 0 10.0962 0H1.15385C0.336538 0 0 0.240385 0 0.817308V11.1058C0 11.5865 0.240385 11.8269 0.865385 11.8269H9.18269C9.375 11.8269 9.47115 11.7788 9.51923 11.6346L10.1442 10.0481C10.1923 9.95192 10.1442 9.90385 10.0481 9.90385H2.45192V7.78846C2.45192 7.06731 2.83654 6.73077 3.94231 6.73077H7.25962C7.45192 6.73077 7.54808 6.68269 7.59615 6.53846L8.22115 5C8.26923 4.90385 8.22115 4.85577 8.125 4.85577H2.5V1.875H9.23077V1.92308Z" transform="translate(32.3558 1.24039)" fill="black"/>
<path id="XMLID_238_" fill-rule="evenodd" clip-rule="evenodd" d="M9.18268 5.57693C10.1442 5.04807 10.5288 4.13461 10.5288 2.98077C10.5288 0.384613 8.41345 0 6.20193 0H1.15384C0.336548 0 0 0.240387 0 0.817322V11.1058C0 11.5865 0.240387 11.8269 0.865387 11.8269H7.06732C9.42307 11.8269 11.0577 10.9135 11.0577 8.55768C11.1058 7.11539 10.5288 5.91345 9.18268 5.57693ZM2.5 1.875H6.39423C7.69232 1.875 8.07693 2.35577 8.07693 3.36539C8.07693 4.375 7.69232 4.85577 6.39423 4.85577H2.5V1.875ZM2.5 9.90384H6.875C8.26923 9.90384 8.65384 9.42307 8.65384 8.31729C8.65384 7.21152 8.26923 6.68268 6.875 6.68268H3.99039C2.88461 6.68268 2.5 7.01923 2.5 7.74036V9.90384Z" transform="translate(16.6827 1.24039)" fill="black"/>
<path id="XMLID_235_" fill-rule="evenodd" clip-rule="evenodd" d="M8.50961 7.06732L11.1538 11.6346C11.2019 11.6827 11.2019 11.8269 11.1058 11.8269H8.84616C8.65384 11.8269 8.60577 11.7788 8.50961 11.6346L6.10577 7.30768H3.94232C2.83655 7.30768 2.45193 7.64423 2.45193 8.36539V11.8269H0.288452C0.144226 11.8269 0 11.6827 0 11.5385V0.817322C0 0.240387 0.336548 0 1.15384 0H6.20193C9.13461 0 10.9135 0.769226 10.9135 3.65384C10.9135 5.86539 9.80768 6.73077 8.50961 7.06732ZM2.40384 5.48077H6.53845C8.0769 5.48077 8.41345 4.90384 8.41345 3.65384C8.41345 2.45193 8.0769 1.875 6.53845 1.875H2.40384V5.48077Z" transform="translate(46.875 1.24039)" fill="black"/>
</g>
<g id="XMLID_224_">
<path id="XMLID_232_" d="M8.79808 10.7692L8.75 11.8269H0V0H8.41346L8.46154 1.10577H1.20192V5.19231H7.45192V6.15385H1.20192V10.7692H8.79808Z" transform="translate(67.6442 1.24039)" fill="#57AD56" stroke="#57AD56" stroke-width="0.25"/>
<path id="XMLID_229_" fill-rule="evenodd" clip-rule="evenodd" d="M2.64423 8.75H9.61539L10.9615 11.8269H12.3077L6.875 0H5.48077L0 11.8269H1.29807L2.64423 8.75ZM3.07693 7.74039L5.625 2.01926L6.10577 0.817322H6.15387L6.63461 2.01926L9.13461 7.74039H3.07693Z" transform="translate(81.0577 1.24039)" fill="#57AD56" stroke="#57AD56" stroke-width="0.25"/>
<path id="XMLID_227_" d="M5.625 1.10577V11.8269H4.42308V1.10577H0L0.0480769 0H10.0962V1.10577H5.625Z" transform="translate(96.3942 1.24039)" fill="#57AD56" stroke="#57AD56" stroke-width="0.25"/>
<path id="XMLID_225_" d="M3.99038 12.3077C2.35577 12.3077 1.05769 11.9231 0 11.2981L0.192308 10.2404C1.29808 10.8654 2.54808 11.25 4.03846 11.25C6.25 11.25 7.40385 10.2404 7.40385 8.79808C7.40385 5.67308 0.192308 7.30769 0.192308 3.26923C0.192308 1.53846 1.49038 0 4.51923 0C5.91346 0 7.16346 0.240385 8.17308 0.721154L7.98077 1.73077C6.875 1.29808 5.81731 1.05769 4.56731 1.05769C2.21154 1.05769 1.34615 2.11538 1.34615 3.17308C1.34615 6.15385 8.55769 4.47115 8.55769 8.70192C8.50962 10.8173 6.97115 12.3077 3.99038 12.3077Z" transform="translate(111.058 1)" fill="#57AD56" stroke="#57AD56" stroke-width="0.25"/>
</g>
</g>
</svg>
