<svg width="24" height="24" viewBox="0 0 24 24" fill="none" xmlns="http://www.w3.org/2000/svg">
<g id="ic/24/social/instagram">
<path id="Combined Shape" fill-rule="evenodd" clip-rule="evenodd" d="M13.0326 0H4.96729C2.22827 0 0 2.22839 0 4.96741V13.0326C0 15.7717 2.22827 18 4.96729 18H13.0326C15.7717 18 18 15.7716 18 13.0326V4.96741C18.0001 2.22839 15.7717 0 13.0326 0ZM17.0001 13.3579C17.0001 15.3662 15.3662 17 13.3579 17H4.64197C2.63379 17.0001 1 15.3662 1 13.3579V4.64209C1 2.63391 2.63379 1 4.64197 1H13.3578C15.3661 1 17 2.63391 17 4.64209L17.0001 13.3579ZM4.36182 9.00024C4.36182 6.44275 6.4425 4.36206 9 4.36206C11.5575 4.36206 13.6381 6.44275 13.6381 9.00024C13.6381 11.5576 11.5575 13.6382 9 13.6382C6.4425 13.6382 4.36182 11.5576 4.36182 9.00024ZM13.4348 2.83411C13.5833 2.68506 13.7898 2.59998 14 2.59998C14.2108 2.59998 14.4174 2.68506 14.5658 2.83411C14.7148 2.98254 14.7999 3.18909 14.7999 3.40002C14.7999 3.61011 14.7148 3.81665 14.5658 3.96582C14.4166 4.11414 14.2108 4.19995 14 4.19995C13.7898 4.19995 13.5833 4.11414 13.4348 3.96582C13.2858 3.81665 13.2 3.61023 13.2 3.40002C13.2 3.26428 13.2355 3.13049 13.3004 3.0127C13.3364 2.94739 13.3816 2.88708 13.4348 2.83411Z" transform="translate(3 3)" fill="white"/>
<mask id="mask0" mask-type="alpha" maskUnits="userSpaceOnUse" x="7" y="5" width="11" height="12">
<path id="Combined Shape_2" fill-rule="evenodd" clip-rule="evenodd" d="M9.073 0.234131C9.22144 0.085083 9.42798 0 9.63818 0C9.849 0 10.0555 0.085083 10.204 0.234131C10.353 0.382568 10.4381 0.589111 10.4381 0.800049C10.4381 1.01013 10.353 1.21667 10.204 1.36584C10.0548 1.51416 9.849 1.59998 9.63818 1.59998C9.42798 1.59998 9.22144 1.51416 9.073 1.36584C8.92395 1.21667 8.83813 1.01025 8.83813 0.800049C8.83813 0.664307 8.87366 0.530518 8.9386 0.41272C8.97461 0.347412 9.01978 0.287109 9.073 0.234131ZM4.63818 1.76208C2.08069 1.76208 0 3.84277 0 6.40027C0 8.95764 2.08069 11.0382 4.63818 11.0382C7.19568 11.0382 9.27625 8.95764 9.27625 6.40027C9.27625 3.84277 7.19568 1.76208 4.63818 1.76208ZM4.63818 10.2397C2.52087 10.2397 0.798218 8.51733 0.798218 6.40002C0.798218 4.28259 2.52075 2.56006 4.63818 2.56006C6.75562 2.56006 8.47827 4.28259 8.47827 6.40002C8.47827 8.51733 6.75549 10.2397 4.63818 10.2397Z" transform="translate(7.36182 5.59998)" fill="white"/>
</mask>
<g mask="url(#mask0)">
</g>
</g>
</svg>
