<svg width="24" height="24" viewBox="0 0 24 24" fill="none" xmlns="http://www.w3.org/2000/svg">
<g id="ic/24/social/instagram">
<path id="Combined Shape" fill-rule="evenodd" clip-rule="evenodd" d="M8.27496 0.234131C8.4234 0.085083 8.62988 0 8.84003 0C9.05096 0 9.25751 0.085083 9.40588 0.234131C9.55493 0.382568 9.64001 0.589111 9.64001 0.800049C9.64001 1.01013 9.55493 1.21667 9.40588 1.36584C9.25677 1.51416 9.05096 1.59998 8.84003 1.59998C8.62988 1.59998 8.42334 1.51416 8.27496 1.36584C8.12585 1.21667 8.04004 1.01025 8.04004 0.800049C8.04004 0.589111 8.12579 0.382568 8.27496 0.234131ZM0 6.40002C0 8.51733 1.72272 10.2397 3.84003 10.2397C5.95728 10.2397 7.67999 8.51733 7.67999 6.40002C7.67999 4.28259 5.9574 2.56006 3.84003 2.56006C1.7226 2.56006 0 4.28259 0 6.40002Z" transform="translate(8.15997 5.59998)" fill="white"/>
<mask id="mask0" mask-type="alpha" maskUnits="userSpaceOnUse" x="7" y="5" width="11" height="12">
<path id="Combined Shape_2" fill-rule="evenodd" clip-rule="evenodd" d="M9.07312 0.234131C9.22156 0.085083 9.42804 0 9.63818 0C9.84912 0 10.0557 0.085083 10.204 0.234131C10.3531 0.382568 10.4382 0.589111 10.4382 0.800049C10.4382 1.01013 10.3531 1.21667 10.204 1.36584C10.0549 1.51416 9.84912 1.59998 9.63818 1.59998C9.42804 1.59998 9.2215 1.51416 9.07312 1.36584C8.92401 1.21667 8.8382 1.01025 8.8382 0.800049C8.8382 0.589111 8.92395 0.382568 9.07312 0.234131ZM4.63812 1.76208C2.08063 1.76208 0 3.84277 0 6.40027C0 8.95764 2.08063 11.0382 4.63812 11.0382C7.19568 11.0382 9.27631 8.95764 9.27631 6.40027C9.27631 3.84277 7.19568 1.76208 4.63812 1.76208ZM4.63824 10.2397C2.52094 10.2397 0.798218 8.51733 0.798218 6.40002C0.798218 4.28259 2.52081 2.56006 4.63824 2.56006C6.75562 2.56006 8.47821 4.28259 8.47821 6.40002C8.47821 8.51733 6.75549 10.2397 4.63824 10.2397Z" transform="translate(7.36182 5.59998)" fill="white"/>
</mask>
<g mask="url(#mask0)">
</g>
</g>
</svg>
