<svg width="24" height="24" viewBox="0 0 24 24" fill="none" xmlns="http://www.w3.org/2000/svg">
<g id="ic/24/social/twitter">
<path id="Shape" fill-rule="evenodd" clip-rule="evenodd" d="M17.5302 1.59489C17.6525 1.56364 17.8052 1.59489 17.8969 1.68864C17.9885 1.78239 18.0191 1.93864 17.9886 2.06364C17.7136 2.96977 17.1637 3.62602 16.4915 3.96977V4.0634C16.4915 10.0942 12.092 15 6.71484 15C3.69018 15 1.24606 14.4688 0.146174 13.5627C0.0239815 13.4377 -0.0371452 13.2814 0.0239815 13.0939C0.0850472 12.9377 0.237818 12.8127 0.421137 12.8127C2.22372 12.7814 3.38467 12.344 4.27069 11.8128C2.55975 11.594 1.49041 10.7504 0.940516 9.15678C0.879389 9.00053 0.940516 8.84428 1.06271 8.75053C1.1849 8.65678 1.36822 8.65678 1.49041 8.71928C1.94869 9.03178 2.40698 9.09428 2.9569 9.09428C1.79595 8.37566 0.726618 7.18816 0.298914 5.71953C0.268336 5.56328 0.329462 5.3759 0.451655 5.3134C0.604426 5.21965 0.757197 5.2509 0.879389 5.34465C1.21548 5.62578 1.58212 5.81328 2.13201 5.90703C0.940516 4.65715 0.20727 2.81352 1.24603 0.782516L1.42935 0.407516L1.7348 0.720016C3.62905 2.75102 5.37051 3.68852 8.54791 4.3134V4.1884C8.54791 1.90739 10.2894 0.0325162 12.4586 0.0012662C13.314 0.0012662 14.5055 0.626266 14.9944 0.907516C15.0061 0.907516 15.0177 0.912033 15.0277 0.915939C15.0438 0.922287 15.0555 0.926803 15.0555 0.907516C15.6666 0.720016 16.3998 0.407516 17.2552 0.0325162C17.3775 -0.0299838 17.5302 0.0012662 17.6219 0.0950162C17.7136 0.188766 17.7441 0.313766 17.683 0.470016C17.5302 0.907516 17.2858 1.37627 16.9192 1.81364L17.5302 1.59489ZM15.7354 3.73784L15.9133 3.67741C16.4764 3.46623 16.8025 3.01347 17.01 2.62126L15.854 3.0136C15.7058 3.0739 15.528 3.0136 15.4687 2.86272C15.4094 2.71172 15.4391 2.53069 15.5576 2.44011C16.0318 2.04778 16.3875 1.62529 16.6543 1.17265C16.0615 1.41399 15.528 1.62529 15.0834 1.77617C14.9055 1.83647 14.7277 1.80632 14.5499 1.71587L14.5316 1.70573C14.1836 1.51225 13.0853 0.901413 12.4158 0.931198C10.6374 0.961349 9.21465 2.50053 9.21465 4.37163V5.2166L8.85894 5.1563C5.59857 4.55266 3.79049 3.67741 1.89352 1.77617C1.00433 4.06975 2.84201 5.66936 3.46444 6.12199L4.20541 6.66521H3.28655C2.69375 6.66521 2.04168 6.6049 1.44888 6.3333C2.10098 7.72148 3.43481 8.7476 4.56112 9.07964L4.47219 9.68315C4.2351 9.68315 3.99795 9.68315 3.76086 9.7133C3.13839 9.74358 2.57525 9.74358 2.04171 9.56242C2.63452 10.7093 3.67193 11.1922 5.36141 11.1922H6.25061L5.50961 11.7354C4.59075 12.4596 3.40515 13.1236 1.35998 13.2746C2.3381 13.7574 4.14611 14.2101 6.84338 14.2101C11.4647 14.2101 15.7354 9.49907 15.7354 4.2509V3.73784Z" transform="translate(3 4.5)" fill="white"/>
<mask id="mask0" mask-type="alpha" maskUnits="userSpaceOnUse" x="3" y="4" width="18" height="16">
<path id="Shape_2" fill-rule="evenodd" clip-rule="evenodd" d="M17.5302 1.59489C17.6525 1.56364 17.8052 1.59489 17.8969 1.68864C17.9885 1.78239 18.0191 1.93864 17.9886 2.06364C17.7136 2.96977 17.1637 3.62602 16.4915 3.96977V4.0634C16.4915 10.0942 12.092 15 6.71484 15C3.69018 15 1.24606 14.4688 0.146174 13.5627C0.0239815 13.4377 -0.0371452 13.2814 0.0239815 13.0939C0.0850472 12.9377 0.237818 12.8127 0.421137 12.8127C2.22372 12.7814 3.38467 12.344 4.27069 11.8128C2.55975 11.594 1.49041 10.7504 0.940516 9.15678C0.879389 9.00053 0.940516 8.84428 1.06271 8.75053C1.1849 8.65678 1.36822 8.65678 1.49041 8.71928C1.94869 9.03178 2.40698 9.09428 2.9569 9.09428C1.79595 8.37566 0.726618 7.18816 0.298914 5.71953C0.268336 5.56328 0.329462 5.3759 0.451655 5.3134C0.604426 5.21965 0.757197 5.2509 0.879389 5.34465C1.21548 5.62578 1.58212 5.81328 2.13201 5.90703C0.940516 4.65715 0.20727 2.81352 1.24603 0.782516L1.42935 0.407516L1.7348 0.720016C3.62905 2.75102 5.37051 3.68852 8.54791 4.3134V4.1884C8.54791 1.90739 10.2894 0.0325162 12.4586 0.0012662C13.314 0.0012662 14.5055 0.626266 14.9944 0.907516C15.0061 0.907516 15.0177 0.912033 15.0277 0.915939C15.0438 0.922287 15.0555 0.926803 15.0555 0.907516C15.6666 0.720016 16.3998 0.407516 17.2552 0.0325162C17.3775 -0.0299838 17.5302 0.0012662 17.6219 0.0950162C17.7136 0.188766 17.7441 0.313766 17.683 0.470016C17.5302 0.907516 17.2858 1.37627 16.9192 1.81364L17.5302 1.59489ZM15.7354 3.73784L15.9133 3.67741C16.4764 3.46623 16.8025 3.01347 17.01 2.62126L15.854 3.0136C15.7058 3.0739 15.528 3.0136 15.4687 2.86272C15.4094 2.71172 15.4391 2.53069 15.5576 2.44011C16.0318 2.04778 16.3875 1.62529 16.6543 1.17265C16.0615 1.41399 15.528 1.62529 15.0834 1.77617C14.9055 1.83647 14.7277 1.80632 14.5499 1.71587L14.5316 1.70573C14.1836 1.51225 13.0853 0.901413 12.4158 0.931198C10.6374 0.961349 9.21465 2.50053 9.21465 4.37163V5.2166L8.85894 5.1563C5.59857 4.55266 3.79049 3.67741 1.89352 1.77617C1.00433 4.06975 2.84201 5.66936 3.46444 6.12199L4.20541 6.66521H3.28655C2.69375 6.66521 2.04168 6.6049 1.44888 6.3333C2.10098 7.72148 3.43481 8.7476 4.56112 9.07964L4.47219 9.68315C4.2351 9.68315 3.99795 9.68315 3.76086 9.7133C3.13839 9.74358 2.57525 9.74358 2.04171 9.56242C2.63452 10.7093 3.67193 11.1922 5.36141 11.1922H6.25061L5.50961 11.7354C4.59075 12.4596 3.40515 13.1236 1.35998 13.2746C2.3381 13.7574 4.14611 14.2101 6.84338 14.2101C11.4647 14.2101 15.7354 9.49907 15.7354 4.2509V3.73784Z" transform="translate(3 4.5)" fill="white"/>
</mask>
<g mask="url(#mask0)">
</g>
</g>
</svg>
