<svg width="24" height="24" viewBox="0 0 24 24" fill="none" xmlns="http://www.w3.org/2000/svg">
<g id="ic/24/social/twitter">
<path id="Shape" fill-rule="evenodd" clip-rule="evenodd" d="M17.5303 1.59489C17.6525 1.56364 17.8053 1.59489 17.8969 1.68864C17.9885 1.78239 18.0191 1.93864 17.9885 2.06364C17.7136 2.96977 17.1637 3.62602 16.4915 3.96977V4.0634C16.4915 10.0942 12.0921 15 6.71486 15C3.6902 15 1.24611 14.4688 0.146254 13.5627C0.0239397 13.4377 -0.0370955 13.2814 0.0239397 13.0939C0.0850969 12.9377 0.237807 12.8127 0.421156 12.8127C2.22377 12.7814 3.38466 12.344 4.27064 11.8128C2.55983 11.594 1.49049 10.7504 0.940566 9.15678C0.879408 9.00053 0.940566 8.84428 1.06276 8.75053C1.18495 8.65678 1.3683 8.65678 1.49049 8.71928C1.94874 9.03178 2.407 9.09428 2.95692 9.09428C1.79591 8.37566 0.726698 7.18816 0.298964 5.71953C0.268324 5.56328 0.329482 5.3759 0.451674 5.3134C0.604384 5.21965 0.757216 5.2509 0.879408 5.34465C1.21547 5.62578 1.58217 5.81328 2.13209 5.90703C0.940566 4.65715 0.207289 2.81352 1.24599 0.782516L1.42934 0.407516L1.73476 0.720016C3.62904 2.75102 5.3705 3.68852 8.54799 4.3134V4.1884C8.54799 1.90739 10.2894 0.0325162 12.4586 0.0012662C13.314 0.0012662 14.5055 0.626266 14.9944 0.907516C15.006 0.907516 15.0177 0.912033 15.0277 0.915939C15.0438 0.922287 15.0556 0.926803 15.0556 0.907516C15.6665 0.720016 16.3998 0.407516 17.2553 0.0325162C17.3775 -0.0299838 17.5303 0.0012662 17.6218 0.0950162C17.7136 0.188766 17.7442 0.313766 17.683 0.470016C17.5303 0.907516 17.2859 1.37627 16.9192 1.81364L17.5303 1.59489ZM15.7355 3.73784L15.9133 3.67741C16.4765 3.46623 16.8025 3.01347 17.01 2.62126L15.854 3.0136C15.7058 3.0739 15.528 3.0136 15.4688 2.86272C15.4094 2.71172 15.4391 2.53069 15.5576 2.44011C16.0319 2.04778 16.3876 1.62529 16.6543 1.17265C16.0615 1.41399 15.528 1.62529 15.0834 1.77617C14.9055 1.83647 14.7277 1.80632 14.5498 1.71587L14.532 1.70598C14.1845 1.51274 13.0856 0.901413 12.4158 0.931198C10.6373 0.961349 9.21461 2.50053 9.21461 4.37163V5.2166L8.85902 5.1563C5.59852 4.55266 3.79054 3.67741 1.89357 1.77617C1.00429 4.06975 2.84205 5.66936 3.46449 6.12199L4.20546 6.66521H3.28663C2.69374 6.66521 2.04176 6.6049 1.44887 6.3333C2.10097 7.72148 3.43483 8.7476 4.56117 9.07964L4.47218 9.68315C4.23512 9.68315 3.99794 9.68315 3.76088 9.7133C3.13844 9.74358 2.57521 9.74358 2.04176 9.56242C2.63454 10.7093 3.67201 11.1922 5.36146 11.1922H6.25062L5.50966 11.7354C4.59083 12.4596 3.40517 13.1236 1.36 13.2746C2.33815 13.7574 4.14613 14.2101 6.8434 14.2101C11.4647 14.2101 15.7355 9.49907 15.7355 4.2509V3.73784Z" transform="translate(3 4.5)" fill="white"/>
<mask id="mask0" mask-type="alpha" maskUnits="userSpaceOnUse" x="3" y="4" width="18" height="16">
<path id="Shape_2" fill-rule="evenodd" clip-rule="evenodd" d="M17.5303 1.59489C17.6525 1.56364 17.8053 1.59489 17.8969 1.68864C17.9885 1.78239 18.0191 1.93864 17.9885 2.06364C17.7136 2.96977 17.1637 3.62602 16.4915 3.96977V4.0634C16.4915 10.0942 12.0921 15 6.71486 15C3.6902 15 1.24611 14.4688 0.146254 13.5627C0.0239397 13.4377 -0.0370955 13.2814 0.0239397 13.0939C0.0850969 12.9377 0.237807 12.8127 0.421156 12.8127C2.22377 12.7814 3.38466 12.344 4.27064 11.8128C2.55983 11.594 1.49049 10.7504 0.940566 9.15678C0.879408 9.00053 0.940566 8.84428 1.06276 8.75053C1.18495 8.65678 1.3683 8.65678 1.49049 8.71928C1.94874 9.03178 2.407 9.09428 2.95692 9.09428C1.79591 8.37566 0.726698 7.18816 0.298964 5.71953C0.268324 5.56328 0.329482 5.3759 0.451674 5.3134C0.604384 5.21965 0.757216 5.2509 0.879408 5.34465C1.21547 5.62578 1.58217 5.81328 2.13209 5.90703C0.940566 4.65715 0.207289 2.81352 1.24599 0.782516L1.42934 0.407516L1.73476 0.720016C3.62904 2.75102 5.3705 3.68852 8.54799 4.3134V4.1884C8.54799 1.90739 10.2894 0.0325162 12.4586 0.0012662C13.314 0.0012662 14.5055 0.626266 14.9944 0.907516C15.006 0.907516 15.0177 0.912033 15.0277 0.915939C15.0438 0.922287 15.0556 0.926803 15.0556 0.907516C15.6665 0.720016 16.3998 0.407516 17.2553 0.0325162C17.3775 -0.0299838 17.5303 0.0012662 17.6218 0.0950162C17.7136 0.188766 17.7442 0.313766 17.683 0.470016C17.5303 0.907516 17.2859 1.37627 16.9192 1.81364L17.5303 1.59489ZM15.7355 3.73784L15.9133 3.67741C16.4765 3.46623 16.8025 3.01347 17.01 2.62126L15.854 3.0136C15.7058 3.0739 15.528 3.0136 15.4688 2.86272C15.4094 2.71172 15.4391 2.53069 15.5576 2.44011C16.0319 2.04778 16.3876 1.62529 16.6543 1.17265C16.0615 1.41399 15.528 1.62529 15.0834 1.77617C14.9055 1.83647 14.7277 1.80632 14.5498 1.71587L14.532 1.70598C14.1845 1.51274 13.0856 0.901413 12.4158 0.931198C10.6373 0.961349 9.21461 2.50053 9.21461 4.37163V5.2166L8.85902 5.1563C5.59852 4.55266 3.79054 3.67741 1.89357 1.77617C1.00429 4.06975 2.84205 5.66936 3.46449 6.12199L4.20546 6.66521H3.28663C2.69374 6.66521 2.04176 6.6049 1.44887 6.3333C2.10097 7.72148 3.43483 8.7476 4.56117 9.07964L4.47218 9.68315C4.23512 9.68315 3.99794 9.68315 3.76088 9.7133C3.13844 9.74358 2.57521 9.74358 2.04176 9.56242C2.63454 10.7093 3.67201 11.1922 5.36146 11.1922H6.25062L5.50966 11.7354C4.59083 12.4596 3.40517 13.1236 1.36 13.2746C2.33815 13.7574 4.14613 14.2101 6.8434 14.2101C11.4647 14.2101 15.7355 9.49907 15.7355 4.2509V3.73784Z" transform="translate(3 4.5)" fill="white"/>
</mask>
<g mask="url(#mask0)">
</g>
</g>
</svg>
