<svg width="24" height="24" viewBox="0 0 24 24" fill="none" xmlns="http://www.w3.org/2000/svg">
<g id="ic/24/social/twitter">
<path id="Shape" fill-rule="evenodd" clip-rule="evenodd" d="M17.5303 1.59489C17.6525 1.56364 17.8052 1.59489 17.8969 1.68864C17.9885 1.78239 18.0191 1.93864 17.9886 2.06364C17.7136 2.96977 17.1637 3.62602 16.4915 3.96977V4.0634C16.4915 10.0942 12.092 15 6.71485 15C3.69019 15 1.2461 14.4688 0.146187 13.5627C0.0239946 13.4377 -0.0371626 13.2814 0.0239946 13.0939C0.0850908 12.9377 0.237801 12.8127 0.42115 12.8127C2.2237 12.7814 3.38471 12.344 4.2707 11.8128C2.55976 11.594 1.49043 10.7504 0.940499 9.15678C0.879402 9.00053 0.940499 8.84428 1.06269 8.75053C1.18494 8.65678 1.36823 8.65678 1.49043 8.71928C1.94874 9.03178 2.40699 9.09428 2.95692 9.09428C1.79597 8.37566 0.726631 7.18816 0.298897 5.71953C0.268379 5.56328 0.329476 5.3759 0.451668 5.3134C0.604439 5.21965 0.75721 5.2509 0.879402 5.34465C1.21546 5.62578 1.5821 5.81328 2.13203 5.90703C0.940499 4.65715 0.207283 2.81352 1.24604 0.782516L1.42933 0.407516L1.73481 0.720016C3.62904 2.75102 5.37049 3.68852 8.54792 4.3134V4.1884C8.54792 1.90739 10.2894 0.0325162 12.4586 0.0012662C13.314 0.0012662 14.5056 0.626266 14.9944 0.907516C15.0061 0.907516 15.0178 0.912033 15.0277 0.915939C15.0439 0.922287 15.0555 0.926803 15.0555 0.907516C15.6666 0.720016 16.3998 0.407516 17.2553 0.0325162C17.3775 -0.0299838 17.5303 0.0012662 17.6219 0.0950162C17.7136 0.188766 17.7441 0.313766 17.683 0.470016C17.5302 0.907516 17.2858 1.37627 16.9192 1.81364L17.5303 1.59489ZM15.7354 3.73784L15.9133 3.67741C16.4764 3.46623 16.8025 3.01347 17.01 2.62126L15.854 3.0136C15.7058 3.0739 15.528 3.0136 15.4687 2.86272C15.4094 2.71172 15.4391 2.53069 15.5576 2.44011C16.0319 2.04778 16.3875 1.62529 16.6543 1.17265C16.0615 1.41399 15.528 1.62529 15.0834 1.77617C14.9056 1.83647 14.7277 1.80632 14.5499 1.71587L14.5314 1.70561C14.1834 1.51201 13.0852 0.901413 12.4158 0.931198C10.6374 0.961349 9.21467 2.50053 9.21467 4.37163V5.2166L8.85896 5.1563C5.59858 4.55266 3.79054 3.67741 1.89356 1.77617C1.00434 4.06975 2.84199 5.66936 3.46449 6.12199L4.20545 6.66521H3.28657C2.69379 6.66521 2.04169 6.6049 1.44892 6.3333C2.10102 7.72148 3.43482 8.7476 4.5611 9.07964L4.47224 9.68315C4.23512 9.68315 3.99799 9.68315 3.76087 9.7133C3.13844 9.74358 2.57526 9.74358 2.04176 9.56242C2.63453 10.7093 3.67194 11.1922 5.3614 11.1922H6.25062L5.50965 11.7354C4.59077 12.4596 3.40516 13.1236 1.35999 13.2746C2.33808 13.7574 4.14613 14.2101 6.84339 14.2101C11.4647 14.2101 15.7354 9.49907 15.7354 4.2509V3.73784Z" transform="translate(3 4.5)" fill="white"/>
<mask id="mask0" mask-type="alpha" maskUnits="userSpaceOnUse" x="3" y="4" width="19" height="16">
<path id="Shape_2" fill-rule="evenodd" clip-rule="evenodd" d="M17.5303 1.59489C17.6525 1.56364 17.8052 1.59489 17.8969 1.68864C17.9885 1.78239 18.0191 1.93864 17.9886 2.06364C17.7136 2.96977 17.1637 3.62602 16.4915 3.96977V4.0634C16.4915 10.0942 12.092 15 6.71485 15C3.69019 15 1.2461 14.4688 0.146187 13.5627C0.0239946 13.4377 -0.0371626 13.2814 0.0239946 13.0939C0.0850908 12.9377 0.237801 12.8127 0.42115 12.8127C2.2237 12.7814 3.38471 12.344 4.2707 11.8128C2.55976 11.594 1.49043 10.7504 0.940499 9.15678C0.879402 9.00053 0.940499 8.84428 1.06269 8.75053C1.18494 8.65678 1.36823 8.65678 1.49043 8.71928C1.94874 9.03178 2.40699 9.09428 2.95692 9.09428C1.79597 8.37566 0.726631 7.18816 0.298897 5.71953C0.268379 5.56328 0.329476 5.3759 0.451668 5.3134C0.604439 5.21965 0.75721 5.2509 0.879402 5.34465C1.21546 5.62578 1.5821 5.81328 2.13203 5.90703C0.940499 4.65715 0.207283 2.81352 1.24604 0.782516L1.42933 0.407516L1.73481 0.720016C3.62904 2.75102 5.37049 3.68852 8.54792 4.3134V4.1884C8.54792 1.90739 10.2894 0.0325162 12.4586 0.0012662C13.314 0.0012662 14.5056 0.626266 14.9944 0.907516C15.0061 0.907516 15.0178 0.912033 15.0277 0.915939C15.0439 0.922287 15.0555 0.926803 15.0555 0.907516C15.6666 0.720016 16.3998 0.407516 17.2553 0.0325162C17.3775 -0.0299838 17.5303 0.0012662 17.6219 0.0950162C17.7136 0.188766 17.7441 0.313766 17.683 0.470016C17.5302 0.907516 17.2858 1.37627 16.9192 1.81364L17.5303 1.59489ZM15.7354 3.73784L15.9133 3.67741C16.4764 3.46623 16.8025 3.01347 17.01 2.62126L15.854 3.0136C15.7058 3.0739 15.528 3.0136 15.4687 2.86272C15.4094 2.71172 15.4391 2.53069 15.5576 2.44011C16.0319 2.04778 16.3875 1.62529 16.6543 1.17265C16.0615 1.41399 15.528 1.62529 15.0834 1.77617C14.9056 1.83647 14.7277 1.80632 14.5499 1.71587L14.5314 1.70561C14.1834 1.51201 13.0852 0.901413 12.4158 0.931198C10.6374 0.961349 9.21467 2.50053 9.21467 4.37163V5.2166L8.85896 5.1563C5.59858 4.55266 3.79054 3.67741 1.89356 1.77617C1.00434 4.06975 2.84199 5.66936 3.46449 6.12199L4.20545 6.66521H3.28657C2.69379 6.66521 2.04169 6.6049 1.44892 6.3333C2.10102 7.72148 3.43482 8.7476 4.5611 9.07964L4.47224 9.68315C4.23512 9.68315 3.99799 9.68315 3.76087 9.7133C3.13844 9.74358 2.57526 9.74358 2.04176 9.56242C2.63453 10.7093 3.67194 11.1922 5.3614 11.1922H6.25062L5.50965 11.7354C4.59077 12.4596 3.40516 13.1236 1.35999 13.2746C2.33808 13.7574 4.14613 14.2101 6.84339 14.2101C11.4647 14.2101 15.7354 9.49907 15.7354 4.2509V3.73784Z" transform="translate(3 4.5)" fill="white"/>
</mask>
<g mask="url(#mask0)">
</g>
</g>
</svg>
