<svg xmlns="http://www.w3.org/2000/svg"><symbol viewBox="0 0 16 25" id="Shape" xmlns="http://www.w3.org/2000/svg"><path d="M8.018.043L8.053.01l7.621 7.248-1.599 1.45L8.93 3.883V25H7.143V3.852L1.962 8.707.4 7.257 8.003.01l.016.033z"/></symbol><symbol viewBox="0 0 16 26" id="arrow" xmlns="http://www.w3.org/2000/svg"><path d="M8.018.043L8.053.01l7.621 7.248-1.599 1.45L8.93 3.883V25H7.143V3.852l-5.18 4.855L.4 7.257 8.003.01l.016.033z"/></symbol><symbol viewBox="0 0 15 25" id="arrow-1" xmlns="http://www.w3.org/2000/svg"><path d="M7.482.033L7.516 0 15 7.25 13.43 8.7 8.376 3.875V25H6.622V3.844L1.534 8.7 0 7.25 7.467 0l.015.033z"/></symbol><symbol viewBox="0 0 16 26" id="arrow-2" xmlns="http://www.w3.org/2000/svg"><path d="M8.018.043L8.053.01l7.621 7.248-1.599 1.45L8.93 3.883V25H7.143V3.852L1.962 8.707.4 7.257 8.003.01l.016.033z"/></symbol><symbol viewBox="0 0 19 23" id="basket" xmlns="http://www.w3.org/2000/svg"><path fill-rule="evenodd" clip-rule="evenodd" d="M18.947 6.859H0v11.79a4 4 0 0 0 4 4h10.947a4 4 0 0 0 4-4V6.858zM4 21.149a2.5 2.5 0 0 1-2.5-2.5V8.358h15.947v10.29a2.5 2.5 0 0 1-2.5 2.5H4z"/><path d="M6.013 12.06V5.868a3.46 3.46 0 1 1 6.921 0v6.192a.75.75 0 0 0 1.5 0V5.868a4.96 4.96 0 1 0-9.92 0v6.192a.75.75 0 0 0 1.5 0z"/></symbol><symbol viewBox="0 0 19 23" id="basket-1" xmlns="http://www.w3.org/2000/svg"><path fill-rule="evenodd" clip-rule="evenodd" d="M18.947 6.859H0v11.79a4 4 0 0 0 4 4h10.947a4 4 0 0 0 4-4V6.858zM4 21.149a2.5 2.5 0 0 1-2.5-2.5V8.358h15.947v10.29a2.5 2.5 0 0 1-2.5 2.5H4z"/><path d="M6.013 12.06V5.868a3.46 3.46 0 1 1 6.921 0v6.192a.75.75 0 0 0 1.5 0V5.868a4.96 4.96 0 1 0-9.92 0v6.192a.75.75 0 0 0 1.5 0z"/></symbol><symbol viewBox="0 0 24 24" id="facebook" xmlns="http://www.w3.org/2000/svg"><path fill-rule="evenodd" clip-rule="evenodd" d="M19.5 3h-15C3.66 3 3 3.66 3 4.5v15c0 .84.66 1.5 1.5 1.5h15c.84 0 1.5-.66 1.5-1.5v-15c0-.84-.66-1.5-1.5-1.5zm-7.448 11.26H9.8v-2.295h2.252V9.957c0-1.636 1.238-3.014 2.815-3.157H17.4v2.296h-2.252a.837.837 0 0 0-.844.86v2.01h2.814v2.295h-2.814v5.94h-2.252v-5.94zm2.876 5.94h4.393c.498 0 .879-.38.879-.878V4.678a.863.863 0 0 0-.879-.879H4.678a.863.863 0 0 0-.878.879v14.643c0 .497.38.878.878.878h6.736V14.93H9.071v-3.515h2.343V9.95A3.844 3.844 0 0 1 14.9 6.143h3.25v3.514h-2.928c-.176 0-.293.117-.293.293v1.464h2.929v3.515h-2.929V20.2z"/></symbol><symbol viewBox="0 0 24 24" id="facebook-1" xmlns="http://www.w3.org/2000/svg"><path fill-rule="evenodd" clip-rule="evenodd" d="M19.5 3h-15C3.66 3 3 3.66 3 4.5v15c0 .84.66 1.5 1.5 1.5h15c.84 0 1.5-.66 1.5-1.5v-15c0-.84-.66-1.5-1.5-1.5zm-7.448 11.26H9.8v-2.295h2.252V9.957c0-1.636 1.238-3.014 2.815-3.157H17.4v2.296h-2.252a.837.837 0 0 0-.844.86v2.01h2.814v2.295h-2.814v5.94h-2.252v-5.94zm2.876 5.94h4.393c.498 0 .879-.38.879-.878V4.678a.863.863 0 0 0-.879-.879H4.678a.863.863 0 0 0-.878.879v14.643c0 .497.38.878.878.878h6.736V14.93H9.071v-3.515h2.343V9.95A3.844 3.844 0 0 1 14.9 6.143h3.25v3.514h-2.928c-.176 0-.293.117-.293.293v1.464h2.929v3.515h-2.929V20.2z"/></symbol><symbol viewBox="0 0 24 24" id="facebook-2" xmlns="http://www.w3.org/2000/svg"><path fill-rule="evenodd" clip-rule="evenodd" d="M19.5 3h-15C3.66 3 3 3.66 3 4.5v15c0 .84.66 1.5 1.5 1.5h15c.84 0 1.5-.66 1.5-1.5v-15c0-.84-.66-1.5-1.5-1.5zm-7.448 11.26H9.8v-2.295h2.252V9.957c0-1.636 1.239-3.014 2.815-3.157H17.4v2.296h-2.252a.838.838 0 0 0-.844.86v2.01h2.815v2.295h-2.815v5.94h-2.252v-5.94zm2.877 5.94h4.393c.497 0 .878-.38.878-.878V4.678a.863.863 0 0 0-.878-.879H4.678a.863.863 0 0 0-.879.879v14.643c0 .497.38.878.879.878h6.735V14.93H9.072v-3.515h2.342V9.95A3.844 3.844 0 0 1 14.9 6.143h3.251v3.514h-2.929c-.175 0-.292.117-.292.293v1.464h2.928v3.515H14.93V20.2z"/></symbol><symbol viewBox="0 0 14 8" id="if_icon-ios7-arrow-back_211686" xmlns="http://www.w3.org/2000/svg"><path d="M1.418 0L0 1.346 7 8l7-6.654L12.582 0 7 5.304 1.418 0z"/></symbol><symbol viewBox="0 0 14 8" id="if_icon-ios7-arrow-back_211686-1" xmlns="http://www.w3.org/2000/svg"><path d="M1.418 0L0 1.346 7 8l7-6.654L12.582 0 7 5.304 1.418 0z"/></symbol><symbol viewBox="0 0 14 8" id="if_icon-ios7-arrow-back_211686-2" xmlns="http://www.w3.org/2000/svg"><path d="M1.418 0L0 1.346 7 8l7-6.654L12.582 0 7 5.304 1.418 0z"/></symbol><symbol viewBox="0 0 24 24" id="instagram" xmlns="http://www.w3.org/2000/svg"><path fill-rule="evenodd" clip-rule="evenodd" d="M16.033 3H7.967A4.973 4.973 0 0 0 3 7.967v8.066A4.973 4.973 0 0 0 7.967 21h8.066A4.973 4.973 0 0 0 21 16.033V7.967A4.973 4.973 0 0 0 16.033 3zM20 16.358A3.646 3.646 0 0 1 16.358 20H7.642A3.646 3.646 0 0 1 4 16.358V7.642A3.646 3.646 0 0 1 7.642 4h8.716A3.646 3.646 0 0 1 20 7.642v8.716zM7.362 12A4.643 4.643 0 0 1 12 7.362 4.643 4.643 0 0 1 16.638 12 4.643 4.643 0 0 1 12 16.638 4.643 4.643 0 0 1 7.362 12zm9.407-6.365a.797.797 0 0 1 .797.2.802.802 0 0 1 0 1.13A.808.808 0 0 1 17 7.2a.806.806 0 0 1-.565-.234.807.807 0 0 1-.235-.566.805.805 0 0 1 .569-.765z"/></symbol><symbol viewBox="0 0 24 24" id="instagram-1" xmlns="http://www.w3.org/2000/svg"><path fill-rule="evenodd" clip-rule="evenodd" d="M16.033 3H7.967A4.973 4.973 0 0 0 3 7.967v8.066A4.973 4.973 0 0 0 7.967 21h8.066A4.973 4.973 0 0 0 21 16.033V7.967A4.973 4.973 0 0 0 16.033 3zM20 16.358A3.646 3.646 0 0 1 16.358 20H7.642A3.646 3.646 0 0 1 4 16.358V7.642A3.646 3.646 0 0 1 7.642 4h8.716A3.646 3.646 0 0 1 20 7.642v8.716zM7.362 12A4.643 4.643 0 0 1 12 7.362 4.643 4.643 0 0 1 16.638 12 4.643 4.643 0 0 1 12 16.638 4.643 4.643 0 0 1 7.362 12zm9.073-6.166a.803.803 0 0 1 1.13 0 .79.79 0 0 1 .235.566c0 .21-.085.417-.234.566A.808.808 0 0 1 17 7.2a.806.806 0 0 1-.759-.549.797.797 0 0 1 .194-.817z"/></symbol><symbol viewBox="0 0 24 24" id="instagram-2" xmlns="http://www.w3.org/2000/svg"><path fill-rule="evenodd" clip-rule="evenodd" d="M16.032 3H7.967A4.973 4.973 0 0 0 3 7.967v8.066A4.973 4.973 0 0 0 7.967 21h8.066A4.973 4.973 0 0 0 21 16.033V7.967A4.973 4.973 0 0 0 16.033 3zM20 16.358A3.646 3.646 0 0 1 16.358 20H7.642A3.646 3.646 0 0 1 4 16.358V7.642A3.646 3.646 0 0 1 7.642 4h8.716A3.646 3.646 0 0 1 20 7.642v8.716zM7.362 12A4.643 4.643 0 0 1 12 7.362 4.644 4.644 0 0 1 16.638 12 4.643 4.643 0 0 1 12 16.638 4.643 4.643 0 0 1 7.362 12zm9.073-6.166a.804.804 0 0 1 1.13 0 .804.804 0 0 1 0 1.132.808.808 0 0 1-.755.21.806.806 0 0 1-.375-.21.807.807 0 0 1-.235-.566c0-.21.086-.417.235-.566z"/></symbol><symbol viewBox="0 0 14 16" id="location" xmlns="http://www.w3.org/2000/svg"><g clip-rule="evenodd"><path d="M7 15.286l4.24-4.322c2.347-2.394 2.347-6.28 0-8.673a5.912 5.912 0 0 0-8.48 0C.414 4.685.414 8.57 2.76 10.964L7 15.286z"/><path d="M7 8.5a2 2 0 1 0 0-4 2 2 0 0 0 0 4z"/></g></symbol><symbol viewBox="0 0 14 16" id="location-1" xmlns="http://www.w3.org/2000/svg"><g clip-rule="evenodd"><path d="M7 15.286l4.24-4.322c2.347-2.394 2.347-6.28 0-8.673a5.912 5.912 0 0 0-8.48 0C.414 4.685.414 8.57 2.76 10.964L7 15.286z"/><path d="M7 8.5a2 2 0 1 0 0-4 2 2 0 0 0 0 4z"/></g></symbol><symbol viewBox="0 0 14 16" id="location-2" xmlns="http://www.w3.org/2000/svg"><g clip-rule="evenodd"><path d="M7 15.286l4.24-4.322c2.347-2.394 2.347-6.28 0-8.673a5.912 5.912 0 0 0-8.48 0C.414 4.685.414 8.57 2.76 10.964L7 15.286z"/><path d="M7 8.5a2 2 0 1 0 0-4 2 2 0 0 0 0 4z"/></g></symbol><symbol viewBox="0 0 121 14" id="logo" xmlns="http://www.w3.org/2000/svg"><path d="M9.423 1.529v6.634c0 2.212-.961 3.125-3.27 3.125-2.307 0-3.268-.913-3.268-3.125V1.24H.673a.31.31 0 0 0-.288.289v6.73c0 3.703 2.355 5 5.769 5 3.413 0 5.77-1.297 5.77-5V1.24H9.711c-.145 0-.289.097-.289.289zm32.164 1.634c.192 0 .288-.048.336-.192l.625-1.586c.048-.097 0-.145-.096-.145H33.51c-.818 0-1.154.24-1.154.818v10.288c0 .48.24.721.865.721h8.317c.193 0 .289-.048.337-.192l.625-1.587c.048-.096 0-.144-.096-.144h-7.596V9.03c0-.721.384-1.058 1.49-1.058h3.317c.193 0 .289-.048.337-.192l.625-1.539c.048-.096 0-.144-.096-.144h-5.625v-2.98h6.73v.047z"/><path fill-rule="evenodd" clip-rule="evenodd" d="M25.865 6.817c.962-.529 1.347-1.442 1.347-2.596 0-2.596-2.116-2.98-4.327-2.98h-5.048c-.818 0-1.154.24-1.154.817v10.288c0 .48.24.721.865.721h6.202c2.356 0 3.99-.913 3.99-3.269.049-1.442-.528-2.644-1.875-2.98zm-6.682-3.702h3.894c1.298 0 1.683.481 1.683 1.49 0 1.01-.385 1.491-1.683 1.491h-3.894v-2.98zm0 8.03h4.375c1.394 0 1.779-.482 1.779-1.587 0-1.106-.385-1.635-1.78-1.635h-2.884c-1.106 0-1.49.337-1.49 1.058v2.163zm36.202-2.837l2.644 4.567c.048.048.048.192-.048.192h-2.26c-.192 0-.24-.048-.336-.192L52.98 8.548h-2.164c-1.105 0-1.49.337-1.49 1.058v3.461h-2.164a.31.31 0 0 1-.288-.288V2.058c0-.577.337-.818 1.154-.818h5.048c2.933 0 4.712.77 4.712 3.654 0 2.212-1.106 3.077-2.404 3.414zM49.279 6.72h4.134c1.539 0 1.875-.577 1.875-1.827 0-1.202-.336-1.779-1.875-1.779H49.28V6.72z"/><g stroke-width=".25"><path d="M76.442 12.01l-.048 1.057h-8.75V1.24h8.414l.048 1.106h-7.26v4.087h6.25v.961h-6.25v4.616h7.596z"/><path fill-rule="evenodd" clip-rule="evenodd" d="M83.702 9.99h6.971l1.346 3.077h1.346L87.933 1.24h-1.395l-5.48 11.827h1.298l1.346-3.077zm.433-1.01l2.548-5.72.48-1.202h.049l.48 1.202 2.5 5.72h-6.057z"/><path d="M102.02 2.346v10.721h-1.203V2.347h-4.423l.048-1.107h10.048v1.106h-4.47zm13.028 10.962c-1.634 0-2.932-.385-3.99-1.01l.192-1.058a7.626 7.626 0 0 0 3.846 1.01c2.212 0 3.366-1.01 3.366-2.452 0-3.125-7.212-1.49-7.212-5.529 0-1.73 1.298-3.269 4.327-3.269 1.394 0 2.644.24 3.654.721l-.192 1.01c-1.106-.433-2.164-.673-3.414-.673-2.355 0-3.22 1.057-3.22 2.115 0 2.98 7.21 1.298 7.21 5.529-.047 2.115-1.586 3.606-4.567 3.606z"/></g></symbol><symbol viewBox="0 0 107 13" id="logo-1" xmlns="http://www.w3.org/2000/svg"><path d="M8.333 1.468v5.867c0 1.955-.85 2.763-2.891 2.763-2.04 0-2.891-.808-2.891-2.763V1.213H.595a.274.274 0 0 0-.255.255V7.42c0 3.273 2.083 4.421 5.102 4.421 3.018 0 5.101-1.148 5.101-4.421V1.213H8.588c-.128 0-.255.085-.255.255zm28.442 1.445c.17 0 .255-.042.297-.17l.553-1.403c.043-.085 0-.127-.085-.127h-7.908c-.722 0-1.02.212-1.02.722v9.098c0 .425.213.638.765.638h7.355c.17 0 .255-.042.298-.17l.553-1.403c.042-.085 0-.127-.085-.127H30.78V8.1c0-.638.34-.935 1.318-.935h2.934c.17 0 .255-.043.297-.17l.553-1.36c.043-.086 0-.128-.085-.128h-4.974V2.87h5.952v.042z"/><path fill-rule="evenodd" clip-rule="evenodd" d="M22.873 6.144c.85-.467 1.19-1.275 1.19-2.296 0-2.295-1.87-2.635-3.826-2.635h-4.464c-.723 0-1.02.212-1.02.722v9.098c0 .425.212.638.765.638h5.484c2.083 0 3.529-.808 3.529-2.89.042-1.276-.468-2.34-1.658-2.637zm-5.91-3.273h3.444c1.148 0 1.488.425 1.488 1.318 0 .892-.34 1.318-1.488 1.318h-3.444V2.87zm0 7.1h3.869c1.233 0 1.573-.426 1.573-1.403 0-.978-.34-1.446-1.573-1.446h-2.55c-.979 0-1.319.298-1.319.935v1.914zm32.013-2.509l2.339 4.04c.042.042.042.17-.043.17h-1.998c-.17 0-.213-.043-.298-.17l-2.125-3.827h-1.913c-.978 0-1.318.297-1.318.935v3.061h-1.914a.274.274 0 0 1-.255-.255v-9.48c0-.51.298-.723 1.02-.723h4.465c2.593 0 4.166.68 4.166 3.23 0 1.956-.978 2.722-2.126 3.02zM43.577 6.06h3.656c1.36 0 1.658-.51 1.658-1.615 0-1.063-.297-1.573-1.658-1.573h-3.656V6.06z"/><g stroke-width=".25"><path d="M67.598 10.736l-.043.935h-7.737V1.213h7.44l.042.977h-6.42v3.614h5.527v.85H60.88v4.082h6.718z"/><path fill-rule="evenodd" clip-rule="evenodd" d="M74.017 8.95h6.165l1.19 2.721h1.19L77.76 1.213h-1.233L71.679 11.67h1.148l1.19-2.72zm.383-.893l2.253-5.059.425-1.063h.043l.425 1.063 2.21 5.06H74.4z"/><path d="M90.215 2.19v9.481h-1.063v-9.48h-3.91l.042-.978h8.885v.977h-3.954zm11.522 9.694c-1.446 0-2.594-.34-3.529-.893l.17-.935a6.744 6.744 0 0 0 3.401.892c1.956 0 2.976-.892 2.976-2.168 0-2.763-6.377-1.318-6.377-4.889 0-1.53 1.148-2.891 3.826-2.891 1.233 0 2.339.213 3.231.638l-.17.893c-.977-.383-1.913-.596-3.018-.596-2.083 0-2.849.936-2.849 1.87 0 2.637 6.378 1.149 6.378 4.89-.043 1.87-1.403 3.189-4.04 3.189z"/></g></symbol><symbol viewBox="0 0 107 13" id="logo-2" xmlns="http://www.w3.org/2000/svg"><path d="M8.333 1.468v5.867c0 1.955-.85 2.763-2.891 2.763-2.04 0-2.891-.808-2.891-2.763V1.213H.595a.274.274 0 0 0-.255.255V7.42c0 3.273 2.083 4.421 5.102 4.421 3.018 0 5.101-1.148 5.101-4.421V1.213H8.588c-.128 0-.255.085-.255.255zm28.442 1.445c.17 0 .255-.042.298-.17l.552-1.403c.043-.085 0-.127-.085-.127h-7.907c-.723 0-1.02.212-1.02.722v9.098c0 .425.212.638.764.638h7.355c.17 0 .256-.042.298-.17l.553-1.403c.042-.085 0-.127-.085-.127H30.78V8.1c0-.638.34-.935 1.318-.935h2.934c.17 0 .255-.043.297-.17l.553-1.36c.043-.086 0-.128-.085-.128h-4.974V2.87h5.952v.042z"/><path fill-rule="evenodd" clip-rule="evenodd" d="M22.873 6.144c.85-.467 1.19-1.275 1.19-2.296 0-2.295-1.87-2.635-3.826-2.635h-4.464c-.723 0-1.02.212-1.02.722v9.098c0 .425.212.638.765.638h5.484c2.083 0 3.529-.808 3.529-2.89.042-1.276-.468-2.34-1.658-2.637zm-5.91-3.273h3.444c1.148 0 1.488.425 1.488 1.318 0 .892-.34 1.318-1.488 1.318h-3.444V2.87zm0 7.1h3.869c1.233 0 1.573-.426 1.573-1.403 0-.978-.34-1.446-1.573-1.446h-2.55c-.979 0-1.319.298-1.319.935v1.914zm32.013-2.509l2.339 4.04c.042.042.042.17-.043.17h-1.998c-.17 0-.212-.043-.298-.17l-2.125-3.827h-1.913c-.978 0-1.318.297-1.318.935v3.061h-1.913a.274.274 0 0 1-.256-.255v-9.48c0-.51.298-.723 1.02-.723h4.465c2.593 0 4.166.68 4.166 3.23 0 1.956-.978 2.722-2.126 3.02zM43.577 6.06h3.656c1.36 0 1.658-.51 1.658-1.615 0-1.063-.297-1.573-1.658-1.573h-3.656V6.06z"/><g stroke-width=".25"><path d="M67.598 10.736l-.043.935h-7.737V1.213h7.44l.042.977h-6.42v3.614h5.527v.85H60.88v4.082h6.718z"/><path fill-rule="evenodd" clip-rule="evenodd" d="M74.017 8.95h6.165l1.19 2.721h1.19L77.76 1.213h-1.233L71.679 11.67h1.148l1.19-2.72zm.383-.893l2.253-5.059.425-1.063h.043l.425 1.063 2.21 5.06H74.4z"/><path d="M90.215 2.19v9.481h-1.062v-9.48H85.24l.043-.978h8.885v.977h-3.954zm11.522 9.694c-1.446 0-2.594-.34-3.529-.893l.17-.935a6.744 6.744 0 0 0 3.401.892c1.956 0 2.976-.892 2.976-2.168 0-2.763-6.377-1.318-6.377-4.889 0-1.53 1.148-2.891 3.826-2.891 1.233 0 2.339.213 3.231.638l-.17.893c-.977-.383-1.913-.596-3.018-.596-2.083 0-2.849.936-2.849 1.87 0 2.637 6.378 1.149 6.378 4.89-.043 1.87-1.403 3.189-4.04 3.189z"/></g></symbol><symbol viewBox="0 0 22 22" id="search" xmlns="http://www.w3.org/2000/svg"><path fill-rule="evenodd" clip-rule="evenodd" d="M8.3 0c4.5 0 8.2 3.6 8.2 8.2 0 2.1-.8 4-2 5.3L22 21l-.9.9-7.5-7.5c-1.5 1.2-3.4 2-5.4 2-4.5 0-8.2-3.6-8.2-8.2C0 3.7 3.7 0 8.3 0zM1.2 8.2c0 3.9 3.2 7 7 7 3.9 0 7-3.1 7-7s-3.1-7-7-7-7 3.2-7 7z"/></symbol><symbol viewBox="0 0 22 22" id="search-1" xmlns="http://www.w3.org/2000/svg"><path fill-rule="evenodd" clip-rule="evenodd" d="M8.3 0c4.5 0 8.2 3.6 8.2 8.2 0 2.1-.8 4-2 5.3L22 21l-.9.9-7.5-7.5c-1.5 1.2-3.4 2-5.4 2-4.5 0-8.2-3.6-8.2-8.2C0 3.7 3.7 0 8.3 0zM1.2 8.2c0 3.9 3.2 7 7 7 3.9 0 7-3.1 7-7s-3.1-7-7-7-7 3.2-7 7z"/></symbol><symbol viewBox="0 0 16 16" id="search-2" xmlns="http://www.w3.org/2000/svg"><path fill-rule="evenodd" clip-rule="evenodd" d="M6.036 0A5.944 5.944 0 0 1 12 5.964c0 1.527-.582 2.909-1.455 3.854L16 15.273l-.655.654-5.454-5.454c-1.09.872-2.473 1.454-3.927 1.454A5.944 5.944 0 0 1 0 5.964C0 2.69 2.69 0 6.036 0zM.873 5.964c0 2.836 2.327 5.09 5.09 5.09a5.06 5.06 0 0 0 5.091-5.09A5.06 5.06 0 0 0 5.964.873C3.127.873.873 3.2.873 5.963z"/></symbol><symbol viewBox="0 0 24 24" id="twitter" xmlns="http://www.w3.org/2000/svg"><path fill-rule="evenodd" clip-rule="evenodd" d="M20.53 6.095a.395.395 0 0 1 .367.094.42.42 0 0 1 .092.375c-.276.906-.825 1.562-1.497 1.906v.093c0 6.031-4.4 10.937-9.777 10.937-3.025 0-5.469-.531-6.569-1.437-.122-.125-.183-.282-.122-.47a.435.435 0 0 1 .397-.28c1.803-.032 2.964-.469 3.85-1-1.711-.219-2.78-1.063-3.33-2.656a.346.346 0 0 1 .122-.406.423.423 0 0 1 .427-.032c.459.313.917.375 1.467.375-1.161-.718-2.23-1.906-2.658-3.374a.456.456 0 0 1 .034-.274.275.275 0 0 1 .119-.133c.153-.093.305-.062.427.032.192.16.393.29.633.39.18.074.384.132.62.172-1.192-1.25-1.925-3.093-.886-5.124l.183-.375.306.312c1.894 2.031 3.636 2.969 6.813 3.593v-.125c0-2.28 1.742-4.155 3.91-4.187.856 0 2.047.625 2.537.907.03 0 .06.03.06 0 .611-.188 1.345-.5 2.2-.875a.32.32 0 0 1 .452.212.378.378 0 0 1-.024.225 4.313 4.313 0 0 1-.764 1.344l.611-.22zm-1.795 2.143l.178-.06c.563-.212.89-.665 1.097-1.057l-1.156.393c-.148.06-.326 0-.385-.151-.06-.151-.03-.332.089-.423.474-.392.83-.815 1.096-1.267-.24.098-.47.19-.69.277-.32.125-.616.236-.881.326a.583.583 0 0 1-.212.031.775.775 0 0 1-.321-.091l-.019-.01c-.348-.194-1.447-.804-2.116-.775-1.778.03-3.2 1.57-3.2 3.44v.846l-.356-.06c-3.26-.604-5.068-1.48-6.965-3.38-.89 2.293.948 3.892 1.57 4.345l.741.543h-.918c-.593 0-1.245-.06-1.838-.332.652 1.388 1.986 2.415 3.112 2.747l-.089.603c-.117 0-.233 0-.35.004-.12.003-.24.011-.361.026a6.55 6.55 0 0 1-1.13-.018 2.97 2.97 0 0 1-.59-.133c.593 1.147 1.63 1.63 3.32 1.63h.89l-.742.543c-.918.725-2.104 1.389-4.15 1.54.979.482 2.787.935 5.484.935 4.621 0 8.892-4.71 8.892-9.96v-.512z"/></symbol><symbol viewBox="0 0 24 24" id="twitter-1" xmlns="http://www.w3.org/2000/svg"><path fill-rule="evenodd" clip-rule="evenodd" d="M20.725 6.095a.357.357 0 0 1 .172.094.42.42 0 0 1 .092.375c-.276.906-.825 1.562-1.497 1.906v.093c0 6.031-4.4 10.937-9.777 10.937-3.025 0-5.469-.531-6.569-1.437-.122-.125-.183-.282-.122-.47a.457.457 0 0 1 .157-.202.409.409 0 0 1 .24-.078c1.803-.032 2.964-.469 3.85-1-1.711-.219-2.78-1.063-3.33-2.656a.346.346 0 0 1 .122-.406.394.394 0 0 1 .251-.075.42.42 0 0 1 .176.043c.323.22.647.317 1.002.354.148.016.302.021.465.021-1.161-.718-2.23-1.906-2.658-3.374a.456.456 0 0 1 .03-.265.282.282 0 0 1 .123-.142c.153-.093.305-.062.427.032.336.28.703.468 1.253.562-1.192-1.25-1.925-3.094-.886-5.125l.183-.375.306.313c1.894 2.031 3.636 2.968 6.813 3.593v-.125c0-2.28 1.742-4.156 3.91-4.187.856 0 2.047.625 2.537.906.011 0 .023.005.033.009.016.006.028.01.028-.009.61-.187 1.344-.5 2.2-.875a.322.322 0 0 1 .46.282c0 .049-.01.1-.033.156a4.314 4.314 0 0 1-.764 1.344l.611-.22a.409.409 0 0 1 .195.001zm-1.99 2.143l.178-.06c.563-.212.89-.665 1.097-1.057l-1.156.393c-.148.06-.326 0-.385-.151-.06-.151-.03-.332.089-.423.474-.392.83-.815 1.096-1.267a30.29 30.29 0 0 1-1.571.603c-.178.06-.355.03-.533-.06-.326-.181-1.453-.815-2.135-.785-1.778.03-3.2 1.57-3.2 3.44v.846l-.356-.06c-3.26-.604-5.068-1.48-6.965-3.38-.89 2.293.948 3.892 1.57 4.345l.741.543h-.918c-.593 0-1.245-.06-1.838-.332.652 1.388 1.986 2.415 3.112 2.747l-.089.603c-.124 0-.247 0-.371.004a3.697 3.697 0 0 0-.34.026c-.623.03-1.186.03-1.72-.15.593 1.146 1.63 1.63 3.32 1.63h.89l-.742.542c-.918.725-2.104 1.389-4.15 1.54.979.482 2.787.935 5.484.935 4.621 0 8.892-4.711 8.892-9.96v-.512z"/></symbol><symbol viewBox="0 0 24 24" id="twitter-2" xmlns="http://www.w3.org/2000/svg"><path fill-rule="evenodd" clip-rule="evenodd" d="M20.53 6.095a.395.395 0 0 1 .367.094c.091.093.122.25.091.375-.274.906-.824 1.562-1.497 1.906v.093c0 6.031-4.399 10.937-9.776 10.937-3.025 0-5.469-.531-6.569-1.437-.122-.125-.183-.282-.122-.47a.436.436 0 0 1 .397-.28c1.803-.032 2.964-.469 3.85-1-1.711-.219-2.78-1.063-3.33-2.656a.346.346 0 0 1 .122-.406.422.422 0 0 1 .427-.032c.459.313.917.375 1.467.375-1.161-.718-2.23-1.906-2.658-3.374a.444.444 0 0 1 .065-.329.247.247 0 0 1 .088-.078c.153-.093.305-.062.427.032.337.28.703.468 1.253.562-1.192-1.25-1.925-3.093-.886-5.124l.183-.375.306.312c1.894 2.031 3.636 2.969 6.813 3.593v-.125c0-2.28 1.741-4.155 3.91-4.187.856 0 2.048.625 2.536.907.03 0 .061.03.061 0 .611-.188 1.345-.5 2.2-.875a.32.32 0 0 1 .367.062c.092.094.122.219.061.375a4.305 4.305 0 0 1-.764 1.344l.611-.22zm-1.794 2.143l.177-.06c.564-.212.89-.665 1.097-1.057l-1.156.393c-.148.06-.326 0-.385-.151-.06-.151-.03-.332.089-.423.474-.392.83-.815 1.096-1.267a30.29 30.29 0 0 1-1.57.603.6.6 0 0 1-.34.013.884.884 0 0 1-.194-.073c-.326-.181-1.452-.815-2.134-.785-1.778.03-3.201 1.57-3.201 3.44v.846l-.356-.06c-3.26-.604-5.068-1.48-6.965-3.38-.89 2.293.948 3.892 1.57 4.345l.742.543h-.92c-.592 0-1.244-.06-1.837-.332.652 1.388 1.986 2.415 3.112 2.747l-.089.603c-.237 0-.474 0-.711.03-.623.03-1.186.03-1.72-.15.594 1.146 1.631 1.63 3.32 1.63h.89l-.741.542c-.92.725-2.105 1.389-4.15 1.54.978.482 2.786.935 5.484.935 4.62 0 8.892-4.71 8.892-9.96v-.512z"/></symbol><symbol viewBox="0 0 192 21" id="white-logo" xmlns="http://www.w3.org/2000/svg"><path d="M15.077 1.846v10.616c0 3.538-1.539 5-5.23 5-3.693 0-5.232-1.462-5.232-5V1.385H1.077c-.23 0-.462.23-.462.461v10.77c0 5.922 3.77 8 9.231 8 5.462 0 9.23-2.078 9.23-8V1.384h-3.538c-.23 0-.461.153-.461.461zm51.461 2.616c.308 0 .462-.077.539-.308l1-2.539c.077-.153 0-.23-.154-.23H53.615c-1.307 0-1.846.384-1.846 1.307v16.462c0 .77.385 1.154 1.385 1.154H66.46c.308 0 .462-.077.539-.308l1-2.538c.077-.154 0-.231-.154-.231H55.692v-3.385c0-1.154.616-1.692 2.385-1.692h5.308c.307 0 .461-.077.538-.308l1-2.461c.077-.154 0-.231-.154-.231h-9v-4.77h10.77v.078z"/><path fill-rule="evenodd" clip-rule="evenodd" d="M41.385 10.308c1.538-.846 2.154-2.308 2.154-4.154 0-4.154-3.385-4.77-6.924-4.77h-8.077c-1.307 0-1.846.385-1.846 1.308v16.462c0 .77.385 1.154 1.385 1.154H38c3.77 0 6.385-1.462 6.385-5.231.077-2.308-.846-4.23-3-4.77zM30.692 4.385h6.231c2.077 0 2.692.769 2.692 2.384 0 1.616-.615 2.385-2.692 2.385h-6.23v-4.77zm0 12.846h7c2.231 0 2.847-.77 2.847-2.539 0-1.769-.616-2.615-2.847-2.615h-4.615c-1.77 0-2.385.538-2.385 1.692v3.462zm57.923-4.539L92.846 20c.077.077.077.308-.077.308h-3.615c-.308 0-.385-.077-.539-.308l-3.846-6.923h-3.461c-1.77 0-2.385.538-2.385 1.692v5.539h-3.461a.496.496 0 0 1-.462-.462V2.692c0-.923.538-1.307 1.846-1.307h8.077c4.692 0 7.538 1.23 7.538 5.846 0 3.538-1.769 4.923-3.846 5.461zm-9.769-2.538h6.615c2.462 0 3-.923 3-2.923 0-1.923-.538-2.846-3-2.846h-6.615v5.769z"/><g stroke-width=".25"><path d="M122.308 18.615l-.077 1.693h-14V1.385h13.461l.078 1.769h-11.616v6.538h10v1.539h-10v7.384h12.154z"/><path fill-rule="evenodd" clip-rule="evenodd" d="M133.923 15.385h11.154l2.154 4.923h2.153l-8.692-18.923h-2.23l-8.77 18.923h2.077l2.154-4.923zm.692-1.616l4.077-9.154.77-1.923h.076l.77 1.923 4 9.154h-9.693z"/><path d="M163.231 3.154v17.154h-1.923V3.154h-7.077l.077-1.77h16.077v1.77h-7.154zm20.846 17.538c-2.616 0-4.693-.615-6.385-1.615l.308-1.692A12.2 12.2 0 0 0 184.154 19c3.538 0 5.384-1.615 5.384-3.923 0-5-11.538-2.385-11.538-8.846C178 3.46 180.077 1 184.923 1c2.23 0 4.23.385 5.846 1.154l-.308 1.615C188.692 3.077 187 2.692 185 2.692c-3.77 0-5.154 1.693-5.154 3.385 0 4.77 11.538 2.077 11.538 8.846-.077 3.385-2.538 5.77-7.307 5.77z"/></g></symbol><symbol viewBox="0 0 192 21" id="white-logo-1" xmlns="http://www.w3.org/2000/svg"><path d="M15.077 1.846v10.616c0 3.538-1.539 5-5.23 5-3.693 0-5.232-1.462-5.232-5V1.385H1.077c-.23 0-.462.23-.462.461v10.77c0 5.922 3.77 8 9.231 8 5.462 0 9.23-2.078 9.23-8V1.384h-3.538c-.23 0-.461.153-.461.461zm51.461 2.616c.308 0 .462-.077.539-.308l1-2.539c.077-.153 0-.23-.154-.23H53.615c-1.307 0-1.846.384-1.846 1.307v16.462c0 .77.385 1.154 1.385 1.154H66.46c.308 0 .462-.077.539-.308l1-2.538c.077-.154 0-.231-.154-.231H55.692v-3.385c0-1.154.616-1.692 2.385-1.692h5.308c.307 0 .461-.077.538-.308l1-2.461c.077-.154 0-.231-.154-.231h-9v-4.77h10.77v.078z"/><path fill-rule="evenodd" clip-rule="evenodd" d="M41.385 10.308c1.538-.846 2.153-2.308 2.153-4.154 0-4.154-3.384-4.77-6.923-4.77h-8.077c-1.307 0-1.846.385-1.846 1.308v16.462c0 .77.385 1.154 1.385 1.154H38c3.77 0 6.385-1.462 6.385-5.231.077-2.308-.847-4.23-3-4.77zM30.692 4.385h6.231c2.077 0 2.692.769 2.692 2.384 0 1.616-.615 2.385-2.692 2.385h-6.23v-4.77zm0 12.846h7c2.231 0 2.846-.77 2.846-2.539 0-1.769-.615-2.615-2.846-2.615h-4.615c-1.77 0-2.385.538-2.385 1.692v3.462zm57.923-4.539L92.846 20c.077.077.077.308-.077.308h-3.615c-.308 0-.385-.077-.539-.308l-3.846-6.923h-3.461c-1.77 0-2.385.538-2.385 1.692v5.539h-3.461a.496.496 0 0 1-.462-.462V2.692c0-.923.538-1.307 1.846-1.307h8.077c4.692 0 7.539 1.23 7.539 5.846 0 3.538-1.77 4.923-3.847 5.461zm-9.769-2.538h6.615c2.462 0 3-.923 3-2.923 0-1.923-.538-2.846-3-2.846h-6.615v5.769z"/><g stroke-width=".25"><path d="M122.308 18.615l-.077 1.693h-14V1.385h13.461l.078 1.769h-11.616v6.538h10v1.539h-10v7.384h12.154z"/><path fill-rule="evenodd" clip-rule="evenodd" d="M133.923 15.385h11.154l2.154 4.923h2.153l-8.692-18.923h-2.23l-8.77 18.923h2.077l2.154-4.923zm.692-1.616l4.077-9.154.77-1.923h.076l.77 1.923 4 9.154h-9.693z"/><path d="M163.231 3.154v17.154h-1.923V3.154h-7.077l.077-1.77h16.077v1.77h-7.154zm20.846 17.538c-2.616 0-4.693-.615-6.385-1.615l.308-1.692A12.2 12.2 0 0 0 184.154 19c3.538 0 5.384-1.615 5.384-3.923 0-5-11.538-2.385-11.538-8.846C178 3.46 180.077 1 184.923 1c2.23 0 4.23.385 5.846 1.154l-.308 1.615C188.692 3.077 187 2.692 185 2.692c-3.77 0-5.154 1.693-5.154 3.385 0 4.77 11.538 2.077 11.538 8.846-.077 3.385-2.538 5.77-7.307 5.77z"/></g></symbol><symbol viewBox="0 0 192 21" id="white-logo-2" xmlns="http://www.w3.org/2000/svg"><path d="M15.077 1.846v10.616c0 3.538-1.539 5-5.23 5-3.693 0-5.232-1.462-5.232-5V1.385H1.077c-.23 0-.462.23-.462.461v10.77c0 5.922 3.77 8 9.231 8 5.462 0 9.23-2.078 9.23-8V1.384h-3.538c-.23 0-.461.153-.461.461zm51.461 2.616c.308 0 .462-.077.539-.308l1-2.539c.077-.153 0-.23-.154-.23H53.615c-1.307 0-1.846.384-1.846 1.307v16.462c0 .77.385 1.154 1.385 1.154h13.308c.307 0 .461-.077.538-.308l1-2.538c.077-.154 0-.231-.154-.231H55.692v-3.385c0-1.154.616-1.692 2.385-1.692h5.308c.307 0 .461-.077.538-.308l1-2.461c.077-.154 0-.231-.154-.231h-9v-4.77h10.77v.078z"/><path fill-rule="evenodd" clip-rule="evenodd" d="M41.385 10.308c1.538-.846 2.154-2.308 2.154-4.154 0-4.154-3.385-4.77-6.924-4.77h-8.077c-1.307 0-1.846.385-1.846 1.308v16.462c0 .77.385 1.154 1.385 1.154H38c3.77 0 6.385-1.462 6.385-5.231.077-2.308-.846-4.23-3-4.77zM30.692 4.385h6.231c2.077 0 2.692.769 2.692 2.384 0 1.616-.615 2.385-2.692 2.385h-6.23v-4.77zm0 12.846h7c2.231 0 2.847-.77 2.847-2.539 0-1.769-.616-2.615-2.847-2.615h-4.615c-1.77 0-2.385.538-2.385 1.692v3.462zm57.923-4.539L92.846 20c.077.077.077.308-.077.308h-3.615c-.308 0-.385-.077-.539-.308l-3.846-6.923h-3.461c-1.77 0-2.385.538-2.385 1.692v5.539h-3.461a.496.496 0 0 1-.462-.462V2.692c0-.923.538-1.307 1.846-1.307h8.077c4.692 0 7.539 1.23 7.539 5.846 0 3.538-1.77 4.923-3.847 5.461zm-9.769-2.538h6.615c2.462 0 3-.923 3-2.923 0-1.923-.538-2.846-3-2.846h-6.615v5.769z"/><g stroke-width=".25"><path d="M122.308 18.615l-.077 1.693h-14V1.385h13.461l.078 1.769h-11.616v6.538h10v1.539h-10v7.384h12.154z"/><path fill-rule="evenodd" clip-rule="evenodd" d="M133.923 15.385h11.154l2.153 4.923h2.154l-8.692-18.923h-2.23l-8.77 18.923h2.077l2.154-4.923zm.692-1.616l4.077-9.154.77-1.923h.076l.77 1.923 4 9.154h-9.693z"/><path d="M163.231 3.154v17.154h-1.923V3.154h-7.077l.077-1.77h16.077v1.77h-7.154zm20.846 17.538c-2.616 0-4.693-.615-6.385-1.615l.308-1.692A12.2 12.2 0 0 0 184.154 19c3.538 0 5.384-1.615 5.384-3.923 0-5-11.538-2.385-11.538-8.846C178 3.46 180.077 1 184.923 1c2.23 0 4.23.385 5.846 1.154l-.308 1.615C188.692 3.077 187 2.692 185 2.692c-3.77 0-5.154 1.693-5.154 3.385 0 4.77 11.538 2.077 11.538 8.846-.077 3.385-2.538 5.77-7.307 5.77z"/></g></symbol><symbol viewBox="0 0 16 16" id="world" xmlns="http://www.w3.org/2000/svg"><path fill-rule="evenodd" clip-rule="evenodd" d="M11.112 5.427c-.461-2.216-1.849-3.882-2.691-4.231v4.343c.842-.01 1.95-.054 2.691-.112zm2.914-.464c-.154.047-.776.22-2.006.366-.278-1.476-.779-2.734-1.432-3.643a6.915 6.915 0 0 1 3.438 3.277zM8.42 6.517a46.486 46.486 0 0 0 2.806-.122c.065.518.081 1.054.081 1.606 0 .709-.025 1.396-.13 2.045a45.888 45.888 0 0 0-2.757-.117V6.517zm0 4.39v3.9c.842-.326 2.089-1.8 2.589-3.795a44.464 44.464 0 0 0-2.589-.105zm2.167 3.41c.588-.82 1.057-1.918 1.347-3.208.968.111 1.577.24 1.885.318a6.918 6.918 0 0 1-3.232 2.89zm1.58-8.02a14.802 14.802 0 0 1-.06 3.845c1.196.14 1.875.31 2.146.388a6.828 6.828 0 0 0 .488-2.529c0-.883-.172-1.758-.505-2.576l.158.447c-.044.015-.714.243-2.227.425z"/></symbol><symbol viewBox="0 0 16 16" id="world-1" xmlns="http://www.w3.org/2000/svg"><path fill-rule="evenodd" clip-rule="evenodd" d="M11.112 5.427c-.461-2.216-1.849-3.882-2.691-4.231v4.343c.842-.01 1.95-.054 2.691-.112zm2.913-.464c-.153.047-.775.22-2.005.366-.278-1.476-.779-2.734-1.433-3.643a6.915 6.915 0 0 1 3.438 3.277zM8.421 6.517a46.486 46.486 0 0 0 2.806-.122c.065.518.081 1.054.081 1.606 0 .709-.025 1.396-.13 2.045a45.888 45.888 0 0 0-2.757-.117V6.517zm0 4.39v3.9c.842-.326 2.089-1.8 2.589-3.795a44.46 44.46 0 0 0-2.589-.105zm2.166 3.41c.59-.82 1.058-1.918 1.348-3.208.968.111 1.577.24 1.885.318a6.92 6.92 0 0 1-3.233 2.89zm1.58-8.02a14.797 14.797 0 0 1-.058 3.845c1.195.14 1.874.31 2.145.388a6.828 6.828 0 0 0 .488-2.529c0-.883-.172-1.758-.505-2.576l.158.447c-.044.015-.714.243-2.227.425z"/></symbol><symbol viewBox="0 0 16 16" id="world-2" xmlns="http://www.w3.org/2000/svg"><path fill-rule="evenodd" clip-rule="evenodd" d="M11.112 5.427c-.461-2.216-1.849-3.882-2.691-4.231v4.343c.842-.01 1.95-.054 2.691-.112zm2.913-.464c-.153.047-.775.22-2.005.366-.278-1.476-.779-2.734-1.433-3.643a6.915 6.915 0 0 1 3.438 3.277zM8.421 6.517a46.484 46.484 0 0 0 2.806-.122c.065.518.081 1.054.081 1.606 0 .709-.025 1.396-.13 2.045a45.886 45.886 0 0 0-2.757-.117V6.517zm0 4.39v3.9c.842-.326 2.089-1.8 2.589-3.795a44.461 44.461 0 0 0-2.589-.105zm2.166 3.41c.59-.82 1.058-1.918 1.348-3.208.968.111 1.577.24 1.885.318a6.918 6.918 0 0 1-3.233 2.89zm1.58-8.02a14.797 14.797 0 0 1-.058 3.845c1.195.14 1.874.31 2.145.388a6.83 6.83 0 0 0 .488-2.529c0-.883-.172-1.758-.505-2.576l.158.447c-.044.015-.714.243-2.227.425z"/></symbol></svg>