<svg width="24" height="24" fill="none" xmlns="http://www.w3.org/2000/svg"><g id="ic/24/social/facebook"><path id="Shape" fill-rule="evenodd" clip-rule="evenodd" d="M16.5 0h-15C.66 0 0 .66 0 1.5v15c0 .84.66 1.5 1.5 1.5h15c.84 0 1.5-.66 1.5-1.5v-15c0-.84-.66-1.5-1.5-1.5zM9.052 11.26H6.8V8.966h2.252V6.957c0-1.636 1.239-3.014 2.815-3.157H14.4v2.296h-2.252a.838.838 0 0 0-.844.86v2.01h2.815v2.295h-2.815v5.94H9.052v-5.94zm2.877 5.94h4.393c.497 0 .878-.38.878-.878V1.678A.863.863 0 0 0 16.322.8H1.678a.863.863 0 0 0-.879.879v14.643c0 .497.38.878.879.878h6.735v-5.27H6.072V8.414h2.342V6.95A3.844 3.844 0 0 1 11.9 3.143h3.251v3.514h-2.929c-.175 0-.292.117-.292.293v1.464h2.928v3.515H11.93V17.2z" transform="translate(3 3)" fill="#fff"/><mask id="mask0" maskUnits="userSpaceOnUse" x="3" y="3" width="18" height="18"><path id="Shape_2" fill-rule="evenodd" clip-rule="evenodd" d="M16.5 0h-15C.66 0 0 .66 0 1.5v15c0 .84.66 1.5 1.5 1.5h15c.84 0 1.5-.66 1.5-1.5v-15c0-.84-.66-1.5-1.5-1.5zM9.052 11.26H6.8V8.966h2.252V6.957c0-1.636 1.239-3.014 2.815-3.157H14.4v2.296h-2.252a.838.838 0 0 0-.844.86v2.01h2.815v2.295h-2.815v5.94H9.052v-5.94zm2.877 5.94h4.393c.497 0 .878-.38.878-.878V1.678A.863.863 0 0 0 16.322.8H1.678a.863.863 0 0 0-.879.879v14.643c0 .497.38.878.879.878h6.735v-5.27H6.072V8.414h2.342V6.95A3.844 3.844 0 0 1 11.9 3.143h3.251v3.514h-2.929c-.175 0-.292.117-.292.293v1.464h2.928v3.515H11.93V17.2z" transform="translate(3 3)" fill="#fff"/></mask></g></svg>