<svg width="24" height="24" fill="none" xmlns="http://www.w3.org/2000/svg"><g id="ic/24/social/facebook"><path id="Shape" fill-rule="evenodd" clip-rule="evenodd" d="M16.5 0h-15C.66 0 0 .66 0 1.5v15c0 .84.66 1.5 1.5 1.5h15c.84 0 1.5-.66 1.5-1.5v-15c0-.84-.66-1.5-1.5-1.5zM9.052 11.26H6.8V8.966h2.252V6.957c0-1.636 1.238-3.014 2.815-3.157H14.4v2.296h-2.252a.837.837 0 0 0-.844.86v2.01h2.814v2.295h-2.814v5.94H9.052v-5.94zm2.876 5.94h4.393c.498 0 .879-.38.879-.878V1.678A.863.863 0 0 0 16.32.8H1.678a.863.863 0 0 0-.878.879v14.643c0 .497.38.878.878.878h6.736v-5.27H6.071V8.414h2.343V6.95A3.844 3.844 0 0 1 11.9 3.143h3.25v3.514h-2.928c-.176 0-.293.117-.293.293v1.464h2.929v3.515h-2.929V17.2z" transform="translate(3 3)" fill="#fff"/><mask id="mask0" maskUnits="userSpaceOnUse" x="3" y="3" width="18" height="18"><path id="Shape_2" fill-rule="evenodd" clip-rule="evenodd" d="M16.5 0h-15C.66 0 0 .66 0 1.5v15c0 .84.66 1.5 1.5 1.5h15c.84 0 1.5-.66 1.5-1.5v-15c0-.84-.66-1.5-1.5-1.5zM9.052 11.26H6.8V8.966h2.252V6.957c0-1.636 1.238-3.014 2.815-3.157H14.4v2.296h-2.252a.837.837 0 0 0-.844.86v2.01h2.814v2.295h-2.814v5.94H9.052v-5.94zm2.876 5.94h4.393c.498 0 .879-.38.879-.878V1.678A.863.863 0 0 0 16.32.8H1.678a.863.863 0 0 0-.878.879v14.643c0 .497.38.878.878.878h6.736v-5.27H6.071V8.414h2.343V6.95A3.844 3.844 0 0 1 11.9 3.143h3.25v3.514h-2.928c-.176 0-.293.117-.293.293v1.464h2.929v3.515h-2.929V17.2z" transform="translate(3 3)" fill="#fff"/></mask></g></svg>