<svg width="24" height="24" fill="none" xmlns="http://www.w3.org/2000/svg"><g id="ic/24/social/instagram"><path id="Combined Shape" fill-rule="evenodd" clip-rule="evenodd" d="M13.033 0H4.967A4.973 4.973 0 0 0 0 4.967v8.066A4.973 4.973 0 0 0 4.967 18h8.066A4.973 4.973 0 0 0 18 13.033V4.967A4.973 4.973 0 0 0 13.033 0zM17 13.358A3.646 3.646 0 0 1 13.358 17H4.642A3.646 3.646 0 0 1 1 13.358V4.642A3.646 3.646 0 0 1 4.642 1h8.716A3.646 3.646 0 0 1 17 4.642v8.716zM4.362 9A4.643 4.643 0 0 1 9 4.362 4.643 4.643 0 0 1 13.638 9 4.643 4.643 0 0 1 9 13.638 4.643 4.643 0 0 1 4.362 9zm9.073-6.166a.803.803 0 0 1 1.13 0 .79.79 0 0 1 .235.566c0 .21-.085.417-.234.566A.808.808 0 0 1 14 4.2a.806.806 0 0 1-.759-.549.797.797 0 0 1 .194-.817z" transform="translate(3 3)" fill="#fff"/><mask id="mask0" maskUnits="userSpaceOnUse" x="7" y="5" width="11" height="12"><path id="Combined Shape_2" fill-rule="evenodd" clip-rule="evenodd" d="M9.073.234a.803.803 0 0 1 1.131 0 .79.79 0 0 1 .234.566c0 .21-.085.417-.234.566a.808.808 0 0 1-.566.234.806.806 0 0 1-.759-.549.796.796 0 0 1 .194-.817zM4.638 1.762A4.643 4.643 0 0 0 0 6.4a4.643 4.643 0 0 0 4.638 4.638A4.643 4.643 0 0 0 9.276 6.4a4.643 4.643 0 0 0-4.638-4.638zm0 8.478A3.844 3.844 0 0 1 .798 6.4a3.844 3.844 0 0 1 3.84-3.84 3.844 3.844 0 0 1 3.84 3.84 3.844 3.844 0 0 1-3.84 3.84z" transform="translate(7.362 5.6)" fill="#fff"/></mask></g></svg>