<svg width="24" height="24" fill="none" xmlns="http://www.w3.org/2000/svg"><g id="ic/24/social/instagram"><path id="Combined Shape" fill-rule="evenodd" clip-rule="evenodd" d="M13.033 0H4.967A4.973 4.973 0 0 0 0 4.967v8.066A4.973 4.973 0 0 0 4.967 18h8.066A4.973 4.973 0 0 0 18 13.033V4.967A4.973 4.973 0 0 0 13.033 0zM17 13.358A3.646 3.646 0 0 1 13.358 17H4.642A3.646 3.646 0 0 1 1 13.358V4.642A3.646 3.646 0 0 1 4.642 1h8.716A3.646 3.646 0 0 1 17 4.642v8.716zM4.362 9A4.643 4.643 0 0 1 9 4.362 4.643 4.643 0 0 1 13.638 9 4.643 4.643 0 0 1 9 13.638 4.643 4.643 0 0 1 4.362 9zm9.407-6.365a.797.797 0 0 1 .797.2.802.802 0 0 1 0 1.13A.808.808 0 0 1 14 4.2a.806.806 0 0 1-.565-.234.807.807 0 0 1-.235-.566.805.805 0 0 1 .569-.765z" transform="translate(3 3)" fill="#fff"/><mask id="mask0" maskUnits="userSpaceOnUse" x="7" y="5" width="11" height="12"><path id="Combined Shape_2" fill-rule="evenodd" clip-rule="evenodd" d="M9.407.035a.797.797 0 0 1 .797.2.802.802 0 0 1 0 1.13.808.808 0 0 1-.566.235.806.806 0 0 1-.565-.234A.807.807 0 0 1 8.838.8a.805.805 0 0 1 .569-.765zM4.638 1.762A4.643 4.643 0 0 0 0 6.4a4.643 4.643 0 0 0 4.638 4.638A4.643 4.643 0 0 0 9.276 6.4a4.643 4.643 0 0 0-4.638-4.638zm0 8.478A3.844 3.844 0 0 1 .798 6.4a3.844 3.844 0 0 1 3.84-3.84 3.844 3.844 0 0 1 3.84 3.84 3.844 3.844 0 0 1-3.84 3.84z" transform="translate(7.362 5.6)" fill="#fff"/></mask></g></svg>