<svg width="24" height="24" fill="none" xmlns="http://www.w3.org/2000/svg"><g id="ic/24/social/twitter"><path id="Shape" fill-rule="evenodd" clip-rule="evenodd" d="M17.53 1.595a.395.395 0 0 1 .367.094.42.42 0 0 1 .092.375c-.276.906-.825 1.562-1.497 1.906v.093c0 6.031-4.4 10.937-9.777 10.937-3.025 0-5.469-.531-6.569-1.437-.122-.125-.183-.282-.122-.47a.435.435 0 0 1 .397-.28c1.803-.032 2.964-.469 3.85-1C2.56 11.594 1.49 10.75.94 9.157a.346.346 0 0 1 .122-.406.423.423 0 0 1 .427-.032c.459.313.917.375 1.467.375C1.796 8.376.727 7.188.3 5.72a.456.456 0 0 1 .034-.274.275.275 0 0 1 .119-.133c.153-.093.305-.062.427.032.192.16.393.29.633.39.18.074.384.132.62.172C.94 4.657.207 2.814 1.246.783L1.43.408l.306.312C3.629 2.751 5.37 3.689 8.548 4.313v-.125c0-2.28 1.742-4.155 3.91-4.187.856 0 2.047.625 2.537.907.03 0 .06.03.06 0 .611-.188 1.345-.5 2.2-.875a.32.32 0 0 1 .452.212.378.378 0 0 1-.024.225 4.313 4.313 0 0 1-.764 1.344l.611-.22zm-1.795 2.143l.178-.06c.563-.212.89-.665 1.097-1.057l-1.156.393c-.148.06-.326 0-.385-.151-.06-.151-.03-.332.089-.423.474-.392.83-.815 1.096-1.267-.24.098-.47.19-.69.277-.32.125-.616.236-.881.326a.583.583 0 0 1-.212.031.775.775 0 0 1-.321-.091l-.019-.01c-.348-.194-1.447-.804-2.116-.775-1.778.03-3.2 1.57-3.2 3.44v.846l-.356-.06c-3.26-.604-5.068-1.48-6.965-3.38-.89 2.293.948 3.892 1.57 4.345l.741.543h-.918c-.593 0-1.245-.06-1.838-.332C2.1 7.721 3.435 8.748 4.56 9.08l-.089.603c-.117 0-.233 0-.35.004-.12.003-.24.011-.361.026a6.55 6.55 0 0 1-1.13-.018 2.97 2.97 0 0 1-.59-.133c.593 1.147 1.63 1.63 3.32 1.63h.89l-.742.543c-.918.725-2.104 1.389-4.15 1.54.979.482 2.787.935 5.484.935 4.621 0 8.892-4.71 8.892-9.96v-.512z" transform="translate(3 4.5)" fill="#fff"/><mask id="mask0" maskUnits="userSpaceOnUse" x="3" y="4" width="19" height="16"><path id="Shape_2" fill-rule="evenodd" clip-rule="evenodd" d="M17.53 1.595a.395.395 0 0 1 .367.094.42.42 0 0 1 .092.375c-.276.906-.825 1.562-1.497 1.906v.093c0 6.031-4.4 10.937-9.777 10.937-3.025 0-5.469-.531-6.569-1.437-.122-.125-.183-.282-.122-.47a.435.435 0 0 1 .397-.28c1.803-.032 2.964-.469 3.85-1C2.56 11.594 1.49 10.75.94 9.157a.346.346 0 0 1 .122-.406.423.423 0 0 1 .427-.032c.459.313.917.375 1.467.375C1.796 8.376.727 7.188.3 5.72a.456.456 0 0 1 .034-.274.275.275 0 0 1 .119-.133c.153-.093.305-.062.427.032.192.16.393.29.633.39.18.074.384.132.62.172C.94 4.657.207 2.814 1.246.783L1.43.408l.306.312C3.629 2.751 5.37 3.689 8.548 4.313v-.125c0-2.28 1.742-4.155 3.91-4.187.856 0 2.047.625 2.537.907.03 0 .06.03.06 0 .611-.188 1.345-.5 2.2-.875a.32.32 0 0 1 .452.212.378.378 0 0 1-.024.225 4.313 4.313 0 0 1-.764 1.344l.611-.22zm-1.795 2.143l.178-.06c.563-.212.89-.665 1.097-1.057l-1.156.393c-.148.06-.326 0-.385-.151-.06-.151-.03-.332.089-.423.474-.392.83-.815 1.096-1.267-.24.098-.47.19-.69.277-.32.125-.616.236-.881.326a.583.583 0 0 1-.212.031.775.775 0 0 1-.321-.091l-.019-.01c-.348-.194-1.447-.804-2.116-.775-1.778.03-3.2 1.57-3.2 3.44v.846l-.356-.06c-3.26-.604-5.068-1.48-6.965-3.38-.89 2.293.948 3.892 1.57 4.345l.741.543h-.918c-.593 0-1.245-.06-1.838-.332C2.1 7.721 3.435 8.748 4.56 9.08l-.089.603c-.117 0-.233 0-.35.004-.12.003-.24.011-.361.026a6.55 6.55 0 0 1-1.13-.018 2.97 2.97 0 0 1-.59-.133c.593 1.147 1.63 1.63 3.32 1.63h.89l-.742.543c-.918.725-2.104 1.389-4.15 1.54.979.482 2.787.935 5.484.935 4.621 0 8.892-4.71 8.892-9.96v-.512z" transform="translate(3 4.5)" fill="#fff"/></mask></g></svg>