<svg width="24" height="24" fill="none" xmlns="http://www.w3.org/2000/svg"><g id="ic/24/social/twitter"><path id="Shape" fill-rule="evenodd" clip-rule="evenodd" d="M17.725 1.595a.357.357 0 0 1 .172.094.42.42 0 0 1 .092.375c-.276.906-.825 1.562-1.497 1.906v.093c0 6.031-4.4 10.937-9.777 10.937-3.025 0-5.469-.531-6.569-1.437-.122-.125-.183-.282-.122-.47a.457.457 0 0 1 .157-.202.409.409 0 0 1 .24-.078c1.803-.032 2.964-.469 3.85-1C2.56 11.594 1.49 10.75.94 9.157a.346.346 0 0 1 .122-.406.394.394 0 0 1 .251-.075.42.42 0 0 1 .176.043c.323.22.647.317 1.002.354.148.016.302.021.465.021C1.796 8.376.727 7.188.3 5.72a.456.456 0 0 1 .03-.265.282.282 0 0 1 .123-.142c.153-.093.305-.062.427.032.336.28.703.468 1.253.562C.94 4.657.207 2.813 1.246.782L1.43.407l.306.313C3.629 2.751 5.37 3.688 8.548 4.313v-.125c0-2.28 1.742-4.156 3.91-4.187.856 0 2.047.625 2.537.906.011 0 .023.005.033.009.016.006.028.01.028-.009.61-.187 1.344-.5 2.2-.875a.322.322 0 0 1 .46.282c0 .049-.01.1-.033.156a4.314 4.314 0 0 1-.764 1.344l.611-.22a.409.409 0 0 1 .195.001zm-1.99 2.143l.178-.06c.563-.212.89-.665 1.097-1.057l-1.156.393c-.148.06-.326 0-.385-.151-.06-.151-.03-.332.089-.423.474-.392.83-.815 1.096-1.267a30.29 30.29 0 0 1-1.571.603c-.178.06-.355.03-.533-.06-.326-.181-1.453-.815-2.135-.785-1.778.03-3.2 1.57-3.2 3.44v.846l-.356-.06c-3.26-.604-5.068-1.48-6.965-3.38-.89 2.293.948 3.892 1.57 4.345l.741.543h-.918c-.593 0-1.245-.06-1.838-.332C2.1 7.721 3.435 8.748 4.56 9.08l-.089.603c-.124 0-.247 0-.371.004a3.697 3.697 0 0 0-.34.026c-.623.03-1.186.03-1.72-.15.593 1.146 1.63 1.63 3.32 1.63h.89l-.742.542c-.918.725-2.104 1.389-4.15 1.54.979.482 2.787.935 5.484.935 4.621 0 8.892-4.711 8.892-9.96v-.512z" transform="translate(3 4.5)" fill="#fff"/><mask id="mask0" maskUnits="userSpaceOnUse" x="3" y="4" width="19" height="16"><path id="Shape_2" fill-rule="evenodd" clip-rule="evenodd" d="M17.725 1.595a.357.357 0 0 1 .172.094.42.42 0 0 1 .092.375c-.276.906-.825 1.562-1.497 1.906v.093c0 6.031-4.4 10.937-9.777 10.937-3.025 0-5.469-.531-6.569-1.437-.122-.125-.183-.282-.122-.47a.457.457 0 0 1 .157-.202.409.409 0 0 1 .24-.078c1.803-.032 2.964-.469 3.85-1C2.56 11.594 1.49 10.75.94 9.157a.346.346 0 0 1 .122-.406.394.394 0 0 1 .251-.075.42.42 0 0 1 .176.043c.323.22.647.317 1.002.354.148.016.302.021.465.021C1.796 8.376.727 7.188.3 5.72a.456.456 0 0 1 .03-.265.282.282 0 0 1 .123-.142c.153-.093.305-.062.427.032.336.28.703.468 1.253.562C.94 4.657.207 2.813 1.246.782L1.43.407l.306.313C3.629 2.751 5.37 3.688 8.548 4.313v-.125c0-2.28 1.742-4.156 3.91-4.187.856 0 2.047.625 2.537.906.011 0 .023.005.033.009.016.006.028.01.028-.009.61-.187 1.344-.5 2.2-.875a.322.322 0 0 1 .46.282c0 .049-.01.1-.033.156a4.314 4.314 0 0 1-.764 1.344l.611-.22a.409.409 0 0 1 .195.001zm-1.99 2.143l.178-.06c.563-.212.89-.665 1.097-1.057l-1.156.393c-.148.06-.326 0-.385-.151-.06-.151-.03-.332.089-.423.474-.392.83-.815 1.096-1.267a30.29 30.29 0 0 1-1.571.603c-.178.06-.355.03-.533-.06-.326-.181-1.453-.815-2.135-.785-1.778.03-3.2 1.57-3.2 3.44v.846l-.356-.06c-3.26-.604-5.068-1.48-6.965-3.38-.89 2.293.948 3.892 1.57 4.345l.741.543h-.918c-.593 0-1.245-.06-1.838-.332C2.1 7.721 3.435 8.748 4.56 9.08l-.089.603c-.124 0-.247 0-.371.004a3.697 3.697 0 0 0-.34.026c-.623.03-1.186.03-1.72-.15.593 1.146 1.63 1.63 3.32 1.63h.89l-.742.542c-.918.725-2.104 1.389-4.15 1.54.979.482 2.787.935 5.484.935 4.621 0 8.892-4.711 8.892-9.96v-.512z" transform="translate(3 4.5)" fill="#fff"/></mask></g></svg>