<svg width="24" height="24" fill="none" xmlns="http://www.w3.org/2000/svg"><g id="ic/24/social/twitter"><path id="Shape" fill-rule="evenodd" clip-rule="evenodd" d="M17.53 1.595a.395.395 0 0 1 .367.094c.091.093.122.25.091.375-.274.906-.824 1.562-1.497 1.906v.093C16.491 10.094 12.092 15 6.715 15c-3.025 0-5.469-.531-6.569-1.437-.122-.125-.183-.282-.122-.47a.436.436 0 0 1 .397-.28c1.803-.032 2.964-.469 3.85-1C2.56 11.594 1.49 10.75.94 9.157a.346.346 0 0 1 .122-.406.422.422 0 0 1 .427-.032c.459.313.917.375 1.467.375C1.796 8.376.727 7.188.3 5.72a.444.444 0 0 1 .065-.329.247.247 0 0 1 .088-.078c.153-.093.305-.062.427.032.337.28.703.468 1.253.562C.94 4.657.207 2.814 1.246.783L1.43.408l.306.312C3.629 2.751 5.37 3.689 8.548 4.313v-.125c0-2.28 1.741-4.155 3.91-4.187.856 0 2.048.625 2.536.907.03 0 .061.03.061 0 .611-.188 1.345-.5 2.2-.875a.32.32 0 0 1 .367.062c.092.094.122.219.061.375a4.305 4.305 0 0 1-.764 1.344l.611-.22zm-1.794 2.143l.177-.06c.564-.212.89-.665 1.097-1.057l-1.156.393c-.148.06-.326 0-.385-.151-.06-.151-.03-.332.089-.423.474-.392.83-.815 1.096-1.267-.593.241-1.126.452-1.57.603a.6.6 0 0 1-.34.013.884.884 0 0 1-.194-.073C14.224 1.535 13.098.9 12.416.93 10.637.96 9.215 2.5 9.215 4.37v.846l-.356-.06c-3.26-.604-5.068-1.48-6.965-3.38-.89 2.293.948 3.892 1.57 4.345l.742.543h-.92c-.592 0-1.244-.06-1.837-.332.652 1.388 1.986 2.415 3.112 2.747l-.089.603c-.237 0-.474 0-.711.03-.623.03-1.186.03-1.72-.15.594 1.146 1.631 1.63 3.32 1.63h.89l-.741.542c-.92.725-2.105 1.389-4.15 1.54.978.482 2.786.935 5.484.935 4.62 0 8.892-4.71 8.892-9.96v-.512z" transform="translate(3 4.5)" fill="#fff"/><mask id="mask0" maskUnits="userSpaceOnUse" x="3" y="4" width="18" height="16"><path id="Shape_2" fill-rule="evenodd" clip-rule="evenodd" d="M17.53 1.595a.395.395 0 0 1 .367.094c.091.093.122.25.091.375-.274.906-.824 1.562-1.497 1.906v.093C16.491 10.094 12.092 15 6.715 15c-3.025 0-5.469-.531-6.569-1.437-.122-.125-.183-.282-.122-.47a.436.436 0 0 1 .397-.28c1.803-.032 2.964-.469 3.85-1C2.56 11.594 1.49 10.75.94 9.157a.346.346 0 0 1 .122-.406.422.422 0 0 1 .427-.032c.459.313.917.375 1.467.375C1.796 8.376.727 7.188.3 5.72a.444.444 0 0 1 .065-.329.247.247 0 0 1 .088-.078c.153-.093.305-.062.427.032.337.28.703.468 1.253.562C.94 4.657.207 2.814 1.246.783L1.43.408l.306.312C3.629 2.751 5.37 3.689 8.548 4.313v-.125c0-2.28 1.741-4.155 3.91-4.187.856 0 2.048.625 2.536.907.03 0 .061.03.061 0 .611-.188 1.345-.5 2.2-.875a.32.32 0 0 1 .367.062c.092.094.122.219.061.375a4.305 4.305 0 0 1-.764 1.344l.611-.22zm-1.794 2.143l.177-.06c.564-.212.89-.665 1.097-1.057l-1.156.393c-.148.06-.326 0-.385-.151-.06-.151-.03-.332.089-.423.474-.392.83-.815 1.096-1.267-.593.241-1.126.452-1.57.603a.6.6 0 0 1-.34.013.884.884 0 0 1-.194-.073C14.224 1.535 13.098.9 12.416.93 10.637.96 9.215 2.5 9.215 4.37v.846l-.356-.06c-3.26-.604-5.068-1.48-6.965-3.38-.89 2.293.948 3.892 1.57 4.345l.742.543h-.92c-.592 0-1.244-.06-1.837-.332.652 1.388 1.986 2.415 3.112 2.747l-.089.603c-.237 0-.474 0-.711.03-.623.03-1.186.03-1.72-.15.594 1.146 1.631 1.63 3.32 1.63h.89l-.741.542c-.92.725-2.105 1.389-4.15 1.54.978.482 2.786.935 5.484.935 4.62 0 8.892-4.71 8.892-9.96v-.512z" transform="translate(3 4.5)" fill="#fff"/></mask></g></svg>