<svg width="192" height="21" fill="none" xmlns="http://www.w3.org/2000/svg"><g id="white-logo"><g id="XMLID_234_" fill="#fff"><path id="XMLID_243_" d="M14.461.462v10.615c0 3.538-1.538 5-5.23 5-3.693 0-5.231-1.462-5.231-5V0H.462A.495.495 0 0 0 0 .462V11.23c0 5.923 3.77 8 9.23 8 5.462 0 9.232-2.077 9.232-8V0h-3.539c-.23 0-.462.154-.462.462z" transform="translate(.615 1.385)"/><path id="XMLID_242_" d="M14.77 3.077c.307 0 .46-.077.538-.308l1-2.538c.077-.154 0-.231-.154-.231H1.846C.538 0 0 .385 0 1.308v16.461c0 .77.385 1.154 1.385 1.154h13.307c.308 0 .462-.077.539-.308l1-2.538c.077-.154 0-.23-.154-.23H3.923V12.46c0-1.153.615-1.692 2.385-1.692h5.307c.308 0 .462-.077.539-.308l1-2.461c.077-.154 0-.23-.154-.23H4V3h10.77v.077z" transform="translate(51.769 1.385)"/><path id="XMLID_238_" fill-rule="evenodd" clip-rule="evenodd" d="M14.692 8.923c1.539-.846 2.154-2.308 2.154-4.154C16.846.615 13.461 0 9.923 0H1.846C.54 0 0 .385 0 1.308v16.461c0 .77.385 1.154 1.385 1.154h9.923c3.77 0 6.384-1.461 6.384-5.23.077-2.308-.846-4.231-3-4.77zM4 3h6.231c2.077 0 2.692.77 2.692 2.385 0 1.615-.615 2.384-2.692 2.384H4V3zm0 12.846h7c2.231 0 2.846-.769 2.846-2.538 0-1.77-.615-2.616-2.846-2.616H6.385c-1.77 0-2.385.539-2.385 1.693v3.461z" transform="translate(26.692 1.385)"/><path id="XMLID_235_" fill-rule="evenodd" clip-rule="evenodd" d="M13.615 11.308l4.231 7.307c.077.077.077.308-.077.308h-3.615c-.167 0-.266-.022-.346-.08a.84.84 0 0 1-.193-.228L9.77 11.692H6.308c-1.77 0-2.385.539-2.385 1.693v5.538H.46a.497.497 0 0 1-.46-.461V1.308C0 .385.539 0 1.846 0h8.077c4.692 0 7.538 1.23 7.538 5.846 0 3.539-1.769 4.923-3.846 5.462zM3.846 8.769h6.615c2.462 0 3-.923 3-2.923 0-1.923-.538-2.846-3-2.846H3.846v5.77z" transform="translate(75 1.385)"/></g><g id="XMLID_224_" fill="#57AD56" stroke="#57AD56" stroke-width=".25"><path id="XMLID_232_" d="M14.077 17.23L14 18.924H0V0h13.461l.078 1.77H1.923v6.538h10v1.538h-10v7.385h12.154z" transform="translate(108.23 1.385)"/><path id="XMLID_229_" fill-rule="evenodd" clip-rule="evenodd" d="M4.231 14h11.154l2.154 4.923h2.153L11 0H8.769L0 18.923h2.077L4.231 14zm.692-1.615L9 3.23l.769-1.923h.077l.77 1.923 4 9.154H4.922z" transform="translate(129.692 1.385)"/><path id="XMLID_227_" d="M9 1.77v17.153H7.077V1.77H0L.077 0h16.077v1.77H9z" transform="translate(154.23 1.385)"/><path id="XMLID_225_" d="M6.385 19.692c-2.616 0-4.693-.615-6.385-1.615l.308-1.692A12.2 12.2 0 0 0 6.462 18c3.538 0 5.384-1.615 5.384-3.923 0-5-11.538-2.385-11.538-8.846C.308 2.46 2.385 0 7.23 0c2.23 0 4.23.385 5.846 1.154l-.308 1.615C11 2.077 9.308 1.692 7.308 1.692c-3.77 0-5.154 1.693-5.154 3.385 0 4.77 11.538 2.077 11.538 8.846-.077 3.385-2.538 5.77-7.307 5.77z" transform="translate(177.692 1)"/></g></g></svg>