<svg width="7" height="14" fill="none" xmlns="http://www.w3.org/2000/svg"><g id="world"><path id="Shape" fill-rule="evenodd" clip-rule="evenodd" d="M2.691 4.23C2.23 2.016.842.35 0 0v4.343a50.78 50.78 0 0 0 1.675-.05c.37-.018.722-.039 1.016-.062zm2.913-.463c-.153.047-.775.22-2.005.367C3.32 2.657 2.82 1.399 2.166.49a6.915 6.915 0 0 1 3.438 3.276zm-3.86 1.5c.385-.02.754-.042 1.062-.068.065.518.081 1.055.081 1.606 0 .709-.025 1.396-.13 2.045A46.045 46.045 0 0 0 0 8.733V5.322a51.57 51.57 0 0 0 1.743-.056zM0 9.71v3.9c.842-.326 2.089-1.8 2.589-3.794A44.407 44.407 0 0 0 0 9.71zm2.167 3.41c.588-.819 1.057-1.918 1.347-3.208.968.111 1.577.241 1.885.319a6.918 6.918 0 0 1-3.232 2.889zm1.58-8.02a14.803 14.803 0 0 1-.059 3.846 18.1 18.1 0 0 1 1.437.22c.343.068.575.129.708.167a6.825 6.825 0 0 0 .488-2.529c0-.883-.172-1.758-.505-2.575l.158.446c-.044.016-.714.243-2.227.425z" transform="translate(.421 .196)" fill="#fff"/></g></svg>