<svg width="7" height="14" fill="none" xmlns="http://www.w3.org/2000/svg"><g id="world"><path id="Shape" fill-rule="evenodd" clip-rule="evenodd" d="M2.69 4.23C2.23 2.016.843.35 0 0v4.343c.842-.01 1.95-.053 2.69-.112zm2.914-.463c-.153.047-.775.22-2.005.367C3.32 2.657 2.819 1.399 2.166.49a6.915 6.915 0 0 1 3.438 3.276zM1.571 5.274c.448-.02.882-.046 1.235-.075.065.518.081 1.055.081 1.606a22.296 22.296 0 0 1-.023.99 9.71 9.71 0 0 1-.107 1.055A45.878 45.878 0 0 0 0 8.733V5.322a50.771 50.771 0 0 0 1.571-.048zM0 9.711v3.9c.842-.326 2.089-1.8 2.589-3.794-.12-.01-.25-.018-.385-.027A49.201 49.201 0 0 0 0 9.711zm2.167 3.41c.588-.819 1.058-1.918 1.347-3.208.968.111 1.577.241 1.885.319a6.92 6.92 0 0 1-3.232 2.889zm1.58-8.02a14.803 14.803 0 0 1-.059 3.846c1.195.14 1.874.309 2.145.387a6.83 6.83 0 0 0 .488-2.529c0-.883-.172-1.758-.505-2.575l.158.446c-.044.016-.714.243-2.227.425z" transform="translate(.42 .196)" fill="#fff"/></g></svg>