<svg width="7" height="14" fill="none" xmlns="http://www.w3.org/2000/svg"><g id="world"><path id="Shape" fill-rule="evenodd" clip-rule="evenodd" d="M2.69 4.23C2.23 2.016.843.35 0 0v4.343a51.93 51.93 0 0 0 1.397-.038 35.5 35.5 0 0 0 1.294-.074zm2.527-.362c-.329.075-.857.175-1.618.266C3.32 2.657 2.819 1.399 2.166.49a6.915 6.915 0 0 1 3.438 3.276 5.565 5.565 0 0 1-.387.1zM0 5.322a46.38 46.38 0 0 0 2.806-.123c.035.277.055.559.068.846.01.25.013.503.013.76 0 .709-.025 1.396-.13 2.045A46.028 46.028 0 0 0 0 8.733V5.322zm0 4.39v3.899c.842-.326 2.089-1.8 2.589-3.794-.41-.032-.916-.058-1.431-.077l-.219-.007-.242-.008L0 9.711zm2.167 3.409c.588-.819 1.058-1.918 1.347-3.208.968.111 1.577.241 1.885.319a6.92 6.92 0 0 1-3.232 2.889zm1.58-8.02a14.803 14.803 0 0 1-.059 3.846c1.195.14 1.874.309 2.145.387a6.83 6.83 0 0 0 .488-2.529c0-.883-.172-1.758-.505-2.575l.158.446c-.044.016-.714.243-2.227.425z" transform="translate(.42 .196)" fill="#fff"/></g></svg>