<svg width="24" height="24" fill="none" xmlns="http://www.w3.org/2000/svg"><g id="ic/24/social/instagram"><path id="Combined Shape" fill-rule="evenodd" clip-rule="evenodd" d="M8.275.234a.803.803 0 0 1 1.13 0 .804.804 0 0 1 0 1.132.808.808 0 0 1-.565.234.806.806 0 0 1-.565-.234A.807.807 0 0 1 8.04.8c0-.21.086-.417.235-.566zM0 6.4a3.844 3.844 0 0 0 3.84 3.84A3.844 3.844 0 0 0 7.68 6.4a3.844 3.844 0 0 0-3.84-3.84A3.844 3.844 0 0 0 0 6.4z" transform="translate(8.16 5.6)" fill="#fff"/><mask id="mask0" maskUnits="userSpaceOnUse" x="7" y="5" width="11" height="12"><path id="Combined Shape_2" fill-rule="evenodd" clip-rule="evenodd" d="M9.073.234a.803.803 0 0 1 1.131 0 .804.804 0 0 1 0 1.132.808.808 0 0 1-.566.234.806.806 0 0 1-.565-.234A.807.807 0 0 1 8.838.8c0-.21.086-.417.235-.566zM4.638 1.762A4.643 4.643 0 0 0 0 6.4a4.643 4.643 0 0 0 4.638 4.638A4.643 4.643 0 0 0 9.276 6.4a4.643 4.643 0 0 0-4.638-4.638zm0 8.478A3.844 3.844 0 0 1 .798 6.4a3.844 3.844 0 0 1 3.84-3.84 3.844 3.844 0 0 1 3.84 3.84 3.844 3.844 0 0 1-3.84 3.84z" transform="translate(7.362 5.6)" fill="#fff"/></mask></g></svg>