<svg width="106" height="13" viewBox="0 0 106 13" fill="none" xmlns="http://www.w3.org/2000/svg">
<g id="logo">
<g id="XMLID_234_">
<path id="XMLID_243_" d="M7.99269 0.255086V6.12206C7.99269 8.07772 7.1424 8.88549 5.10172 8.88549C3.06103 8.88549 2.21074 8.07772 2.21074 6.12206V0H0.255086C0.127543 0 0 0.127543 0 0.255086V6.20709C0 9.48069 2.0832 10.6286 5.10172 10.6286C8.12023 10.6286 10.2034 9.48069 10.2034 6.20709V0H8.24778C8.12023 0 7.99269 0.0850286 7.99269 0.255086Z" transform="translate(0.340332 1.21259)" fill="black"/>
<path id="XMLID_242_" d="M8.16275 1.70057C8.3328 1.70057 8.41783 1.65806 8.46035 1.53051L9.01303 0.127543C9.05555 0.0425143 9.01303 0 8.928 0H1.02034C0.2976 0 0 0.212572 0 0.722743V9.8208C0 10.2459 0.212572 10.4585 0.765257 10.4585H8.12023C8.29029 10.4585 8.37532 10.416 8.41783 10.2885L8.97052 8.88549C9.01303 8.80046 8.97052 8.75795 8.88549 8.75795H2.16823V6.88732C2.16823 6.2496 2.50834 5.952 3.48617 5.952H6.41966C6.58972 5.952 6.67475 5.90949 6.71726 5.78195L7.26995 4.42149C7.31246 4.33646 7.26995 4.29394 7.18492 4.29394H2.21074V1.65806H8.16275V1.70057Z" transform="translate(28.6123 1.21259)" fill="black"/>
<path id="XMLID_238_" fill-rule="evenodd" clip-rule="evenodd" d="M8.12012 4.93167C8.9707 4.46399 9.31055 3.65622 9.31055 2.63589C9.31055 0.340118 7.43994 0 5.48438 0H1.02051C0.297363 0 0 0.212585 0 0.722748V9.8208C0 10.2459 0.212402 10.4585 0.765137 10.4585H6.24951C8.33301 10.4585 9.77832 9.65076 9.77832 7.56754C9.8208 6.29211 9.31055 5.22925 8.12012 4.93167ZM2.21094 1.65805H5.65479C6.80225 1.65805 7.14258 2.08319 7.14258 2.97598C7.14258 3.8688 6.80225 4.29395 5.65479 4.29395H2.21094V1.65805ZM2.21094 8.75793H6.07959C7.3125 8.75793 7.65283 8.33279 7.65283 7.35498C7.65283 6.37714 7.3125 5.90948 6.07959 5.90948H3.52881C2.55127 5.90948 2.21094 6.20709 2.21094 6.84479V8.75793Z" transform="translate(14.7524 1.21259)" fill="black"/>
<path id="XMLID_235_" fill-rule="evenodd" clip-rule="evenodd" d="M7.5249 6.2496L9.86328 10.2885C9.90576 10.331 9.90576 10.4585 9.8208 10.4585H7.82275C7.65234 10.4585 7.60986 10.416 7.5249 10.2885L5.39941 6.46219H3.48633C2.5083 6.46219 2.16846 6.75977 2.16846 7.39749V10.4585H0.254883C0.199707 10.4585 0.144531 10.4345 0.0996094 10.397C0.0410156 10.3479 0 10.2757 0 10.2034V0.722748C0 0.212585 0.297363 0 1.02051 0H5.48438C8.07764 0 9.65088 0.680237 9.65088 3.23108C9.65088 5.18674 8.67285 5.952 7.5249 6.2496ZM2.12549 4.84662H5.78174C7.14209 4.84662 7.43994 4.33646 7.43994 3.23108C7.43994 2.16821 7.14209 1.65805 5.78174 1.65805H2.12549V4.84662Z" transform="translate(41.4517 1.21259)" fill="black"/>
</g>
<g id="XMLID_224_">
<path id="XMLID_232_" d="M7.78012 9.5232L7.7376 10.4585H0V0H7.44L7.48252 0.977829H1.06286V4.59154H6.58972V5.44183H1.06286V9.5232H7.78012Z" transform="translate(59.8179 1.21259)" fill="#57AD56" stroke="#57AD56" stroke-width="0.25"/>
<path id="XMLID_229_" fill-rule="evenodd" clip-rule="evenodd" d="M2.33838 7.73761H8.50293L9.69336 10.4585H10.8838L6.07959 0H4.84668L0 10.4585H1.14795L2.33838 7.73761ZM2.7207 6.84482L4.97412 1.78561L5.39893 0.722748H5.44141L5.8667 1.78561L8.07764 6.84482H2.7207Z" transform="translate(71.6792 1.21259)" fill="#57AD56" stroke="#57AD56" stroke-width="0.25"/>
<path id="XMLID_227_" d="M4.97417 0.977829V10.4585H3.91132V0.977829H0L0.0425143 0H8.928V0.977829H4.97417Z" transform="translate(85.2412 1.21259)" fill="#57AD56" stroke="#57AD56" stroke-width="0.25"/>
<path id="XMLID_225_" d="M3.52869 10.8837C2.0832 10.8837 0.935315 10.5435 0 9.99086L0.170057 9.05555C1.14789 9.60823 2.25326 9.94835 3.5712 9.94835C5.52686 9.94835 6.5472 9.05555 6.5472 7.78012C6.5472 5.01669 0.170057 6.46217 0.170057 2.89097C0.170057 1.36046 1.31794 0 3.99634 0C5.22926 0 6.33463 0.212572 7.22743 0.637715L7.05737 1.53051C6.07955 1.14789 5.14423 0.935315 4.03886 0.935315C1.95566 0.935315 1.1904 1.87063 1.1904 2.80594C1.1904 5.44183 7.56755 3.95383 7.56755 7.69509C7.52503 9.56572 6.16457 10.8837 3.52869 10.8837Z" transform="translate(98.2085 1)" fill="#57AD56" stroke="#57AD56" stroke-width="0.25"/>
</g>
</g>
</svg>
