<svg width="19" height="23" viewBox="0 0 19 23" fill="none" xmlns="http://www.w3.org/2000/svg">
<g id="basket">
<path id="Rectangle-10" fill-rule="evenodd" clip-rule="evenodd" d="M18.9474 0H0V11.7895C0 13.9986 1.79089 15.7895 4 15.7895H14.9474C17.1565 15.7895 18.9474 13.9986 18.9474 11.7895V0ZM4 14.2895C2.61926 14.2895 1.5 13.1702 1.5 11.7895V1.5H17.4474V11.7895C17.4474 13.1702 16.3281 14.2895 14.9474 14.2895H4Z" transform="translate(0 6.85876)" fill="#262626"/>
<path id="Rectangle-3" d="M1.5 11.1525V4.96053C1.5 3.04933 3.04933 1.5 4.96053 1.5C6.87172 1.5 8.42105 3.04933 8.42105 4.96053V11.1525C8.42105 11.5667 8.75684 11.9025 9.17105 11.9025C9.58527 11.9025 9.92105 11.5667 9.92105 11.1525V4.96053C9.92105 2.2209 7.70015 0 4.96053 0C2.2209 0 0 2.2209 0 4.96053V11.1525C0 11.5667 0.335786 11.9025 0.75 11.9025C1.16421 11.9025 1.5 11.5667 1.5 11.1525Z" transform="translate(4.51318 0.907532)" fill="#262626"/>
</g>
</svg>
