<svg width="107" height="13" viewBox="0 0 107 13" fill="none" xmlns="http://www.w3.org/2000/svg">
<g id="logo">
<g id="XMLID_234_">
<path id="XMLID_243_" d="M7.99269 0.255086V6.12206C7.99269 8.07772 7.1424 8.88549 5.10172 8.88549C3.06103 8.88549 2.21074 8.07772 2.21074 6.12206V0H0.255086C0.127543 0 0 0.127543 0 0.255086V6.20709C0 9.48069 2.0832 10.6286 5.10172 10.6286C8.12023 10.6286 10.2034 9.48069 10.2034 6.20709V0H8.24778C8.12023 0 7.99269 0.0850286 7.99269 0.255086Z" transform="translate(0.340088 1.21259)" fill="black"/>
<path id="XMLID_242_" d="M8.16275 1.70057C8.3328 1.70057 8.41783 1.65806 8.46035 1.53051L9.01303 0.127543C9.05555 0.0425143 9.01303 0 8.928 0H1.02034C0.2976 0 0 0.212572 0 0.722743V9.8208C0 10.2459 0.212572 10.4585 0.765257 10.4585H8.12023C8.29029 10.4585 8.37532 10.416 8.41783 10.2885L8.97052 8.88549C9.01303 8.80046 8.97052 8.75795 8.88549 8.75795H2.16823V6.88732C2.16823 6.2496 2.50834 5.952 3.48617 5.952H6.41966C6.58972 5.952 6.67475 5.90949 6.71726 5.78195L7.26995 4.42149C7.31246 4.33646 7.26995 4.29394 7.18492 4.29394H2.21074V1.65806H8.16275V1.70057Z" transform="translate(28.6122 1.21259)" fill="black"/>
<path id="XMLID_238_" fill-rule="evenodd" clip-rule="evenodd" d="M8.12024 4.93167C8.97046 4.46399 9.31067 3.65622 9.31067 2.63589C9.31067 0.340118 7.44006 0 5.48438 0H1.02039C0.297607 0 0 0.212585 0 0.722748V9.8208C0 10.2459 0.212524 10.4585 0.765259 10.4585H6.24963C8.33276 10.4585 9.77832 9.65076 9.77832 7.56754C9.8208 6.29211 9.31067 5.22925 8.12024 4.93167ZM2.21069 1.65805H5.6543C6.80225 1.65805 7.14233 2.08319 7.14233 2.97598C7.14233 3.8688 6.80225 4.29395 5.6543 4.29395H2.21069V1.65805ZM2.21069 8.75793H6.07947C7.31238 8.75793 7.65247 8.33279 7.65247 7.35498C7.65247 6.37714 7.31238 5.90948 6.07947 5.90948H3.52869C2.55078 5.90948 2.21069 6.20709 2.21069 6.84479V8.75793Z" transform="translate(14.7524 1.21259)" fill="black"/>
<path id="XMLID_235_" fill-rule="evenodd" clip-rule="evenodd" d="M7.52502 6.2496L9.86328 10.2885C9.90588 10.331 9.90588 10.4585 9.8208 10.4585H7.82263C7.65259 10.4585 7.61011 10.416 7.52502 10.2885L5.39929 6.46219H3.48621C2.5083 6.46219 2.16821 6.75977 2.16821 7.39749V10.4585H0.255127C0.127563 10.4585 0 10.331 0 10.2034V0.722748C0 0.212585 0.297607 0 1.02039 0H5.48438C8.07776 0 9.65076 0.680237 9.65076 3.23108C9.65076 5.18674 8.67297 5.952 7.52502 6.2496ZM2.12573 4.84662H5.78198C7.14246 4.84662 7.44006 4.33646 7.44006 3.23108C7.44006 2.16821 7.14246 1.65805 5.78198 1.65805H2.12573V4.84662Z" transform="translate(41.4514 1.21259)" fill="black"/>
</g>
<g id="XMLID_224_">
<path id="XMLID_232_" d="M7.78012 9.5232L7.7376 10.4585H0V0H7.44L7.48252 0.977829H1.06286V4.59154H6.58972V5.44183H1.06286V9.5232H7.78012Z" transform="translate(59.8176 1.21259)" fill="#57AD56" stroke="#57AD56" stroke-width="0.25"/>
<path id="XMLID_229_" fill-rule="evenodd" clip-rule="evenodd" d="M2.33826 7.73761H8.50281L9.69324 10.4585H10.8837L6.07959 0H4.84668L0 10.4585H1.14783L2.33826 7.73761ZM2.72095 6.84482L4.97424 1.78561L5.39929 0.722748H5.44189L5.86707 1.78561L8.07776 6.84482H2.72095Z" transform="translate(71.6791 1.21259)" fill="#57AD56" stroke="#57AD56" stroke-width="0.25"/>
<path id="XMLID_227_" d="M4.97417 0.977829V10.4585H3.91132V0.977829H0L0.0425143 0H8.928V0.977829H4.97417Z" transform="translate(85.2412 1.21259)" fill="#57AD56" stroke="#57AD56" stroke-width="0.25"/>
<path id="XMLID_225_" d="M3.52869 10.8837C2.0832 10.8837 0.935315 10.5435 0 9.99086L0.170057 9.05555C1.14789 9.60823 2.25326 9.94835 3.5712 9.94835C5.52686 9.94835 6.5472 9.05555 6.5472 7.78012C6.5472 5.01669 0.170057 6.46217 0.170057 2.89097C0.170057 1.36046 1.31794 0 3.99634 0C5.22926 0 6.33463 0.212572 7.22743 0.637715L7.05737 1.53051C6.07955 1.14789 5.14423 0.935315 4.03886 0.935315C1.95566 0.935315 1.1904 1.87063 1.1904 2.80594C1.1904 5.44183 7.56755 3.95383 7.56755 7.69509C7.52503 9.56572 6.16457 10.8837 3.52869 10.8837Z" transform="translate(98.208 1)" fill="#57AD56" stroke="#57AD56" stroke-width="0.25"/>
</g>
</g>
</svg>
