<svg width="192" height="21" viewBox="0 0 192 21" fill="none" xmlns="http://www.w3.org/2000/svg">
<g id="white-logo">
<g id="XMLID_234_">
<path id="XMLID_243_" d="M14.4615 0.461538V11.0769C14.4615 14.6154 12.9231 16.0769 9.23077 16.0769C5.53846 16.0769 4 14.6154 4 11.0769V0H0.461538C0.230769 0 0 0.230769 0 0.461538V11.2308C0 17.1538 3.76923 19.2308 9.23077 19.2308C14.6923 19.2308 18.4615 17.1538 18.4615 11.2308V0H14.9231C14.6923 0 14.4615 0.153846 14.4615 0.461538Z" transform="translate(0.615356 1.38464)" fill="white"/>
<path id="XMLID_242_" d="M14.7692 3.07692C15.0769 3.07692 15.2308 3 15.3077 2.76923L16.3077 0.230769C16.3846 0.0769231 16.3077 0 16.1538 0H1.84615C0.538462 0 0 0.384615 0 1.30769V17.7692C0 18.5385 0.384615 18.9231 1.38462 18.9231H14.6923C15 18.9231 15.1538 18.8462 15.2308 18.6154L16.2308 16.0769C16.3077 15.9231 16.2308 15.8462 16.0769 15.8462H3.92308V12.4615C3.92308 11.3077 4.53846 10.7692 6.30769 10.7692H11.6154C11.9231 10.7692 12.0769 10.6923 12.1538 10.4615L13.1538 8C13.2308 7.84615 13.1538 7.76923 13 7.76923H4V3H14.7692V3.07692Z" transform="translate(51.7693 1.38464)" fill="white"/>
<path id="XMLID_238_" fill-rule="evenodd" clip-rule="evenodd" d="M14.6923 8.9231C16.2307 8.0769 16.8462 6.61536 16.8462 4.76929C16.8462 0.615356 13.4615 0 9.9231 0H1.84619C0.538452 0 0 0.384644 0 1.30774V17.7693C0 18.5385 0.384644 18.9231 1.38464 18.9231H11.3077C15.0769 18.9231 17.6923 17.4615 17.6923 13.6923C17.7693 11.3846 16.8462 9.46155 14.6923 8.9231ZM4 3H10.2307C12.3077 3 12.9231 3.76929 12.9231 5.38464C12.9231 7 12.3077 7.76929 10.2307 7.76929H4V3ZM4 15.8461H11C13.2307 15.8461 13.8462 15.0769 13.8462 13.3076C13.8462 11.5385 13.2307 10.6923 11 10.6923H6.38464C4.61536 10.6923 4 11.2307 4 12.3845V15.8461Z" transform="translate(26.6923 1.38464)" fill="white"/>
<path id="XMLID_235_" fill-rule="evenodd" clip-rule="evenodd" d="M13.6154 11.3077L17.8462 18.6154C17.9231 18.6923 17.9231 18.9231 17.7693 18.9231H14.1538C13.8462 18.9231 13.7693 18.8462 13.6154 18.6154L9.76929 11.6923H6.30774C4.53845 11.6923 3.9231 12.2307 3.9231 13.3846V18.9231H0.461548C0.230713 18.9231 0 18.6923 0 18.4615V1.30774C0 0.384644 0.538452 0 1.84619 0H9.9231C14.6154 0 17.4615 1.23071 17.4615 5.84619C17.4615 9.38464 15.6923 10.7693 13.6154 11.3077ZM3.84619 8.76929H10.4615C12.9231 8.76929 13.4615 7.84619 13.4615 5.84619C13.4615 3.9231 12.9231 3 10.4615 3H3.84619V8.76929Z" transform="translate(75 1.38464)" fill="white"/>
</g>
<g id="XMLID_224_">
<path id="XMLID_232_" d="M14.0769 17.2308L14 18.9231H0V0H13.4615L13.5385 1.76923H1.92308V8.30769H11.9231V9.84615H1.92308V17.2308H14.0769Z" transform="translate(108.231 1.38464)" fill="#57AD56" stroke="#57AD56" stroke-width="0.25"/>
<path id="XMLID_229_" fill-rule="evenodd" clip-rule="evenodd" d="M4.23071 14H15.3846L17.5385 18.9231H19.6923L11 0H8.76929L0 18.9231H2.0769L4.23071 14ZM4.9231 12.3846L9 3.23083L9.76929 1.30774H9.84619L10.6154 3.23083L14.6154 12.3846H4.9231Z" transform="translate(129.692 1.38464)" fill="#57AD56" stroke="#57AD56" stroke-width="0.25"/>
<path id="XMLID_227_" d="M9 1.76923V18.9231H7.07692V1.76923H0L0.076923 0H16.1538V1.76923H9Z" transform="translate(154.231 1.38464)" fill="#57AD56" stroke="#57AD56" stroke-width="0.25"/>
<path id="XMLID_225_" d="M6.38462 19.6923C3.76923 19.6923 1.69231 19.0769 0 18.0769L0.307692 16.3846C2.07692 17.3846 4.07692 18 6.46154 18C10 18 11.8462 16.3846 11.8462 14.0769C11.8462 9.07692 0.307692 11.6923 0.307692 5.23077C0.307692 2.46154 2.38462 0 7.23077 0C9.46154 0 11.4615 0.384615 13.0769 1.15385L12.7692 2.76923C11 2.07692 9.30769 1.69231 7.30769 1.69231C3.53846 1.69231 2.15385 3.38462 2.15385 5.07692C2.15385 9.84615 13.6923 7.15385 13.6923 13.9231C13.6154 17.3077 11.1538 19.6923 6.38462 19.6923Z" transform="translate(177.692 1)" fill="#57AD56" stroke="#57AD56" stroke-width="0.25"/>
</g>
</g>
</svg>
