<svg width="16" height="16" viewBox="0 0 16 16" fill="none" xmlns="http://www.w3.org/2000/svg">
<g id="world">
<path id="Shape" fill-rule="evenodd" clip-rule="evenodd" d="M11.111 5.28503C10.6498 3.0697 9.26208 1.40381 8.41992 1.05432V5.39734C9.26208 5.38696 10.3702 5.34399 11.111 5.28503ZM14.0244 4.82153C13.871 4.86865 13.2489 5.04224 12.0186 5.18787C11.741 3.71143 11.2399 2.45325 10.5864 1.54492C12.0845 2.19421 13.3027 3.36304 14.0244 4.82153ZM8.41992 6.37585C9.26208 6.36487 10.4424 6.31848 11.2261 6.25342C11.2906 6.77161 11.3069 7.30798 11.3069 7.85962C11.3069 8.56812 11.2816 9.25525 11.1772 9.90454C10.4056 9.84216 9.26208 9.79724 8.41992 9.78723V6.37585ZM8.41992 10.7657V14.6653C9.26208 14.3394 10.5089 12.8662 11.0085 10.871C10.2871 10.8154 9.26208 10.7759 8.41992 10.7657ZM10.5864 14.1748C11.1753 13.3563 11.6444 12.2577 11.9338 10.9673C12.9016 11.0787 13.5114 11.2084 13.8187 11.2859C13.0786 12.5703 11.9456 13.583 10.5864 14.1748ZM12.1667 6.15527C12.3145 7.4342 12.2946 8.72705 12.1078 10.0009C13.3027 10.1409 13.9823 10.3099 14.2527 10.3888C14.5642 9.6051 14.7411 8.75317 14.7411 7.85962C14.7406 6.97644 14.5691 6.10181 14.2358 5.28394L14.3938 5.73022C14.3495 5.74597 13.6797 5.97363 12.1667 6.15527Z" transform="translate(0.00109863 0.141479)" fill="white"/>
</g>
</svg>
