<svg width="19" height="23" fill="none" xmlns="http://www.w3.org/2000/svg"><g id="basket" fill="#262626"><path id="Rectangle-10" fill-rule="evenodd" clip-rule="evenodd" d="M18.947 0H0v11.79a4 4 0 0 0 4 4h10.947a4 4 0 0 0 4-4V0zM4 14.29a2.5 2.5 0 0 1-2.5-2.5V1.5h15.947v10.29a2.5 2.5 0 0 1-2.5 2.5H4z" transform="translate(0 6.859)"/><path id="Rectangle-3" d="M1.5 11.152v-6.19a3.46 3.46 0 1 1 6.921 0v6.191a.75.75 0 0 0 1.5 0V4.962A4.96 4.96 0 1 0 0 4.96v6.191a.75.75 0 0 0 1.5 0z" transform="translate(4.513 .908)"/></g></svg>