<svg width="121" height="14" fill="none" xmlns="http://www.w3.org/2000/svg"><g id="logo"><g id="XMLID_234_" fill="#000"><path id="XMLID_243_" d="M9.038.288v6.635c0 2.212-.961 3.125-3.269 3.125-2.307 0-3.269-.913-3.269-3.125V0H.288A.31.31 0 0 0 0 .288V7.02c0 3.702 2.356 5 5.77 5 3.413 0 5.769-1.298 5.769-5V0H9.327c-.144 0-.289.096-.289.288z" transform="translate(.385 1.24)"/><path id="XMLID_242_" d="M9.23 1.923c.193 0 .29-.048.337-.192l.625-1.587c.048-.096 0-.144-.096-.144H1.154C.337 0 0 .24 0 .817v10.289c0 .48.24.72.865.72h8.318c.192 0 .288-.047.336-.191l.625-1.587c.048-.096 0-.144-.096-.144H2.452V7.788c0-.72.385-1.057 1.49-1.057H7.26c.192 0 .288-.048.336-.193L8.221 5c.048-.096 0-.144-.096-.144H2.5V1.875h6.73v.048z" transform="translate(32.356 1.24)"/><path id="XMLID_238_" fill-rule="evenodd" clip-rule="evenodd" d="M9.183 5.577c.961-.529 1.346-1.442 1.346-2.596C10.529.385 8.413 0 6.202 0H1.154C.337 0 0 .24 0 .817v10.289c0 .48.24.72.865.72h6.202c2.356 0 3.99-.912 3.99-3.268.049-1.443-.528-2.645-1.874-2.981zM2.5 1.875h3.894c1.298 0 1.683.48 1.683 1.49s-.385 1.49-1.683 1.49H2.5v-2.98zm0 8.029h4.375c1.394 0 1.779-.48 1.779-1.587 0-1.105-.385-1.634-1.779-1.634H3.99c-1.105 0-1.49.336-1.49 1.057v2.164z" transform="translate(16.683 1.24)"/><path id="XMLID_235_" fill-rule="evenodd" clip-rule="evenodd" d="M8.51 7.067l2.644 4.568c.048.048.048.192-.048.192h-2.26c-.192 0-.24-.048-.336-.192L6.106 7.308H3.942c-1.105 0-1.49.336-1.49 1.057v3.462H.288A.31.31 0 0 1 0 11.539V.817C0 .24.337 0 1.154 0h5.048c2.933 0 4.712.77 4.712 3.654 0 2.211-1.106 3.077-2.404 3.413zM2.404 5.481h4.134c1.539 0 1.875-.577 1.875-1.827 0-1.202-.336-1.779-1.875-1.779H2.404v3.606z" transform="translate(46.875 1.24)"/></g><g id="XMLID_224_" fill="#57AD56" stroke="#57AD56" stroke-width=".25"><path id="XMLID_232_" d="M8.798 10.77l-.048 1.057H0V0h8.413l.049 1.106h-7.26v4.086h6.25v.962h-6.25v4.615h7.596z" transform="translate(67.644 1.24)"/><path id="XMLID_229_" fill-rule="evenodd" clip-rule="evenodd" d="M2.644 8.75h6.971l1.346 3.077h1.347L6.875 0H5.481L0 11.827h1.298L2.644 8.75zm.433-1.01l2.548-5.72.48-1.203h.049l.48 1.202 2.5 5.721H3.078z" transform="translate(81.058 1.24)"/><path id="XMLID_227_" d="M5.625 1.106v10.72H4.423V1.107H0L.048 0h10.048v1.106H5.625z" transform="translate(96.394 1.24)"/><path id="XMLID_225_" d="M3.99 12.308c-1.634 0-2.932-.385-3.99-1.01l.192-1.058a7.626 7.626 0 0 0 3.846 1.01c2.212 0 3.366-1.01 3.366-2.452 0-3.125-7.212-1.49-7.212-5.529C.192 1.54 1.49 0 4.52 0c1.394 0 2.644.24 3.654.721l-.192 1.01c-1.106-.433-2.164-.673-3.414-.673-2.355 0-3.22 1.057-3.22 2.115 0 2.98 7.21 1.298 7.21 5.529-.047 2.115-1.586 3.606-4.567 3.606z" transform="translate(111.058 1)"/></g></g></svg>