<svg width="107" height="13" fill="none" xmlns="http://www.w3.org/2000/svg"><g id="logo"><g id="XMLID_234_" fill="#000"><path id="XMLID_243_" d="M7.993.255v5.867c0 1.956-.85 2.763-2.891 2.763S2.21 8.078 2.21 6.122V0H.255A.274.274 0 0 0 0 .255v5.952c0 3.274 2.083 4.422 5.102 4.422 3.018 0 5.101-1.148 5.101-4.422V0H8.248c-.128 0-.255.085-.255.255z" transform="translate(.34 1.213)"/><path id="XMLID_242_" d="M8.163 1.7c.17 0 .255-.042.297-.17L9.013.129C9.056.043 9.013 0 8.928 0H1.02C.298 0 0 .213 0 .723V9.82c0 .425.213.638.765.638H8.12c.17 0 .255-.043.298-.17l.553-1.404c.042-.085 0-.127-.086-.127H2.168v-1.87c0-.638.34-.936 1.318-.936H6.42c.17 0 .255-.043.297-.17l.553-1.36c.042-.086 0-.128-.085-.128H2.21V1.658h5.952v.043z" transform="translate(28.612 1.213)"/><path id="XMLID_238_" fill-rule="evenodd" clip-rule="evenodd" d="M8.12 4.932c.85-.468 1.19-1.276 1.19-2.296C9.31.34 7.44 0 5.485 0H1.02C.298 0 0 .213 0 .723V9.82c0 .425.213.638.765.638H6.25c2.083 0 3.528-.808 3.528-2.891.043-1.276-.467-2.339-1.658-2.636zM2.21 1.658h3.444c1.148 0 1.488.425 1.488 1.318s-.34 1.318-1.488 1.318H2.211V1.658zm0 7.1h3.87c1.232 0 1.572-.425 1.572-1.403s-.34-1.446-1.573-1.446H3.53c-.978 0-1.318.298-1.318.936v1.913z" transform="translate(14.752 1.213)"/><path id="XMLID_235_" fill-rule="evenodd" clip-rule="evenodd" d="M7.525 6.25l2.338 4.039c.043.042.043.17-.042.17H7.823c-.17 0-.213-.043-.298-.17L5.399 6.462H3.486c-.978 0-1.318.298-1.318.935v3.062H.255A.274.274 0 0 1 0 10.203V.723C0 .213.298 0 1.02 0h4.464c2.594 0 4.167.68 4.167 3.231 0 1.956-.978 2.721-2.126 3.019zm-5.4-1.403h3.657c1.36 0 1.658-.51 1.658-1.616 0-1.063-.298-1.573-1.658-1.573H2.126v3.189z" transform="translate(41.451 1.213)"/></g><g id="XMLID_224_" fill="#57AD56" stroke="#57AD56" stroke-width=".25"><path id="XMLID_232_" d="M7.78 9.523l-.042.936H0V0h7.44l.043.978h-6.42v3.614H6.59v.85H1.063v4.081H7.78z" transform="translate(59.818 1.213)"/><path id="XMLID_229_" fill-rule="evenodd" clip-rule="evenodd" d="M2.338 7.738h6.165l1.19 2.72h1.19L6.08 0H4.847L0 10.459h1.148l1.19-2.721zm.383-.893l2.253-5.06L5.4.724h.043l.425 1.063 2.21 5.059H2.722z" transform="translate(71.68 1.213)"/><path id="XMLID_227_" d="M4.974.978v9.48H3.911V.979H0L.043 0h8.885v.978H4.974z" transform="translate(85.241 1.213)"/><path id="XMLID_225_" d="M3.529 10.884c-1.446 0-2.594-.34-3.529-.893l.17-.935a6.744 6.744 0 0 0 3.401.892c1.956 0 2.976-.892 2.976-2.168C6.547 5.017.17 6.462.17 2.891.17 1.361 1.318 0 3.996 0 5.23 0 6.335.213 7.227.638l-.17.893C6.08 1.148 5.144.935 4.04.935c-2.083 0-2.849.936-2.849 1.87 0 2.637 6.378 1.149 6.378 4.89-.043 1.87-1.403 3.189-4.04 3.189z" transform="translate(98.208 1)"/></g></g></svg>