<svg width="16" height="16" fill="none" xmlns="http://www.w3.org/2000/svg"><g id="world"><path id="Shape" fill-rule="evenodd" clip-rule="evenodd" d="M11.111 5.285C10.65 3.07 9.262 1.404 8.42 1.055v4.342c.842-.01 1.95-.053 2.691-.112zm2.913-.463c-.153.047-.775.22-2.005.366-.278-1.477-.78-2.735-1.433-3.643a6.915 6.915 0 0 1 3.438 3.277zM8.42 6.376a46.486 46.486 0 0 0 2.806-.123c.065.519.08 1.055.08 1.607 0 .708-.024 1.395-.129 2.045a45.888 45.888 0 0 0-2.757-.118V6.376zm0 4.39v3.9c.842-.327 2.089-1.8 2.588-3.795a44.46 44.46 0 0 0-2.588-.105zm2.166 3.409c.59-.819 1.058-1.917 1.348-3.208.968.112 1.577.241 1.885.319a6.92 6.92 0 0 1-3.233 2.889zm1.58-8.02a14.797 14.797 0 0 1-.058 3.846c1.195.14 1.874.309 2.145.388a6.828 6.828 0 0 0 .488-2.53c0-.883-.172-1.757-.505-2.575l.158.446c-.044.016-.714.244-2.227.425z" transform="translate(.001 .141)" fill="#fff"/></g></svg>