<svg width="24" height="24" viewBox="0 0 24 24" fill="none" xmlns="http://www.w3.org/2000/svg">
<g id="ic/24/social/twitter">
<path id="Shape" fill-rule="evenodd" clip-rule="evenodd" d="M17.7251 1.595C17.7901 1.61062 17.8511 1.64187 17.897 1.68863C17.9883 1.78238 18.0191 1.93863 17.9888 2.06363C17.7134 2.96975 17.1636 3.626 16.4917 3.96975V4.06338C16.4917 10.0941 12.0918 15 6.71486 15C3.69045 15 1.24611 14.4688 0.146015 13.5627C0.0239444 13.4377 -0.0370908 13.2814 0.0239444 13.0939C0.0551944 13.0141 0.11037 12.9424 0.181171 12.8914C0.249042 12.8426 0.331073 12.8127 0.420917 12.8127C2.22365 12.7814 3.38478 12.344 4.27053 11.8128C2.55959 11.594 1.49025 10.7504 0.940448 9.15677C0.879413 9.00052 0.940448 8.84427 1.06252 8.75052C1.13381 8.69583 1.22609 8.673 1.31447 8.67593C1.37795 8.67801 1.43947 8.69327 1.49025 8.71927C1.8135 8.93948 2.13674 9.03555 2.49172 9.07303C2.64016 9.08877 2.79445 9.09427 2.95705 9.09427C1.79592 8.37564 0.726581 7.18814 0.298847 5.71951C0.281757 5.63211 0.293476 5.53494 0.328632 5.45535C0.355976 5.39273 0.397968 5.34097 0.451679 5.31338C0.604511 5.21963 0.757343 5.25088 0.879413 5.34463C1.21535 5.62576 1.58205 5.81326 2.13185 5.90701C0.940448 4.65713 0.20705 2.8135 1.24611 0.782499L1.42922 0.407499L1.73488 0.719999C3.62892 2.751 5.37062 3.6885 8.54787 4.31338V4.18838C8.54787 1.90738 10.2896 0.0324989 12.4585 0.00124892C13.314 0.00124892 14.5054 0.626249 14.9946 0.907499C15.0064 0.907499 15.0181 0.912015 15.0279 0.915922C15.044 0.922269 15.0557 0.926786 15.0557 0.907499C15.6665 0.719999 16.3999 0.407499 17.2554 0.0324989C17.3101 0.00454482 17.3706 -0.00461046 17.4292 0.00210341C17.502 0.0104042 17.5713 0.043119 17.6221 0.0949989C17.6807 0.155302 17.7149 0.228544 17.7154 0.314848C17.7154 0.362577 17.7051 0.414335 17.6831 0.469999C17.5303 0.907499 17.2857 1.37625 16.9195 1.81363L17.5303 1.59488C17.5913 1.57925 17.6602 1.57925 17.7251 1.595ZM15.7354 3.73782L15.9131 3.6774C16.4761 3.46621 16.8023 3.01346 17.0098 2.62124L15.854 3.01358C15.7056 3.07388 15.5279 3.01358 15.4688 2.8627C15.4092 2.7117 15.439 2.53067 15.5576 2.44009C16.0318 2.04776 16.3872 1.62527 16.6543 1.17264C16.0615 1.41397 15.5279 1.62527 15.083 1.77615C14.9053 1.83645 14.7276 1.8063 14.5498 1.71585C14.2237 1.5347 13.0972 0.900907 12.4155 0.931181C10.6372 0.961332 9.21437 2.50052 9.21437 4.37161V5.21658L8.85891 5.15628C5.59865 4.55264 3.79055 3.6774 1.89357 1.77615C1.00441 4.06973 2.84182 5.66934 3.46437 6.12198L4.2051 6.66519H3.28664C2.69387 6.66519 2.04152 6.60489 1.44875 6.33328C2.10109 7.72146 3.43459 8.74759 4.56105 9.07962L4.47219 9.68313C4.34816 9.68313 4.22463 9.68313 4.1006 9.68741C3.98732 9.69131 3.87404 9.69888 3.76076 9.71329C3.1382 9.74356 2.57521 9.74356 2.04152 9.56241C2.6343 10.7093 3.67189 11.1922 5.36135 11.1922H6.25051L5.5093 11.7354C4.59084 12.4596 3.40529 13.1236 1.35988 13.2746C2.33791 13.7574 4.14601 14.2101 6.84328 14.2101C11.4644 14.2101 15.7354 9.49905 15.7354 4.25088V3.73782Z" transform="translate(3 4.5)" fill="white"/>
<mask id="mask0" mask-type="alpha" maskUnits="userSpaceOnUse" x="3" y="4" width="19" height="16">
<path id="Shape_2" fill-rule="evenodd" clip-rule="evenodd" d="M17.7251 1.595C17.7901 1.61062 17.8511 1.64187 17.897 1.68863C17.9883 1.78238 18.0191 1.93863 17.9888 2.06363C17.7134 2.96975 17.1636 3.626 16.4917 3.96975V4.06338C16.4917 10.0941 12.0918 15 6.71486 15C3.69045 15 1.24611 14.4688 0.146015 13.5627C0.0239444 13.4377 -0.0370908 13.2814 0.0239444 13.0939C0.0551944 13.0141 0.11037 12.9424 0.181171 12.8914C0.249042 12.8426 0.331073 12.8127 0.420917 12.8127C2.22365 12.7814 3.38478 12.344 4.27053 11.8128C2.55959 11.594 1.49025 10.7504 0.940448 9.15677C0.879413 9.00052 0.940448 8.84427 1.06252 8.75052C1.13381 8.69583 1.22609 8.673 1.31447 8.67593C1.37795 8.67801 1.43947 8.69327 1.49025 8.71927C1.8135 8.93948 2.13674 9.03555 2.49172 9.07303C2.64016 9.08877 2.79445 9.09427 2.95705 9.09427C1.79592 8.37564 0.726581 7.18814 0.298847 5.71951C0.281757 5.63211 0.293476 5.53494 0.328632 5.45535C0.355976 5.39273 0.397968 5.34097 0.451679 5.31338C0.604511 5.21963 0.757343 5.25088 0.879413 5.34463C1.21535 5.62576 1.58205 5.81326 2.13185 5.90701C0.940448 4.65713 0.20705 2.8135 1.24611 0.782499L1.42922 0.407499L1.73488 0.719999C3.62892 2.751 5.37062 3.6885 8.54787 4.31338V4.18838C8.54787 1.90738 10.2896 0.0324989 12.4585 0.00124892C13.314 0.00124892 14.5054 0.626249 14.9946 0.907499C15.0064 0.907499 15.0181 0.912015 15.0279 0.915922C15.044 0.922269 15.0557 0.926786 15.0557 0.907499C15.6665 0.719999 16.3999 0.407499 17.2554 0.0324989C17.3101 0.00454482 17.3706 -0.00461046 17.4292 0.00210341C17.502 0.0104042 17.5713 0.043119 17.6221 0.0949989C17.6807 0.155302 17.7149 0.228544 17.7154 0.314848C17.7154 0.362577 17.7051 0.414335 17.6831 0.469999C17.5303 0.907499 17.2857 1.37625 16.9195 1.81363L17.5303 1.59488C17.5913 1.57925 17.6602 1.57925 17.7251 1.595ZM15.7354 3.73782L15.9131 3.6774C16.4761 3.46621 16.8023 3.01346 17.0098 2.62124L15.854 3.01358C15.7056 3.07388 15.5279 3.01358 15.4688 2.8627C15.4092 2.7117 15.439 2.53067 15.5576 2.44009C16.0318 2.04776 16.3872 1.62527 16.6543 1.17264C16.0615 1.41397 15.5279 1.62527 15.083 1.77615C14.9053 1.83645 14.7276 1.8063 14.5498 1.71585C14.2237 1.5347 13.0972 0.900907 12.4155 0.931181C10.6372 0.961332 9.21437 2.50052 9.21437 4.37161V5.21658L8.85891 5.15628C5.59865 4.55264 3.79055 3.6774 1.89357 1.77615C1.00441 4.06973 2.84182 5.66934 3.46437 6.12198L4.2051 6.66519H3.28664C2.69387 6.66519 2.04152 6.60489 1.44875 6.33328C2.10109 7.72146 3.43459 8.74759 4.56105 9.07962L4.47219 9.68313C4.34816 9.68313 4.22463 9.68313 4.1006 9.68741C3.98732 9.69131 3.87404 9.69888 3.76076 9.71329C3.1382 9.74356 2.57521 9.74356 2.04152 9.56241C2.6343 10.7093 3.67189 11.1922 5.36135 11.1922H6.25051L5.5093 11.7354C4.59084 12.4596 3.40529 13.1236 1.35988 13.2746C2.33791 13.7574 4.14601 14.2101 6.84328 14.2101C11.4644 14.2101 15.7354 9.49905 15.7354 4.25088V3.73782Z" transform="translate(3 4.5)" fill="white"/>
</mask>
<g mask="url(#mask0)">
</g>
</g>
</svg>
