<svg width="24" height="24" viewBox="0 0 24 24" fill="none" xmlns="http://www.w3.org/2000/svg">
<g id="ic/24/social/twitter">
<path id="Shape" fill-rule="evenodd" clip-rule="evenodd" d="M17.5303 1.59489C17.6524 1.56364 17.8052 1.59489 17.897 1.68864C17.9883 1.78239 18.0191 1.93864 17.9888 2.06364C17.7134 2.96977 17.1636 3.62602 16.4917 3.96977V4.0634C16.4917 10.0942 12.0918 15 6.71486 15C3.69045 15 1.24611 14.4688 0.146015 13.5627C0.0239444 13.4377 -0.0370908 13.2814 0.0239444 13.0939C0.0849795 12.9377 0.237812 12.8127 0.420917 12.8127C2.22365 12.7814 3.38478 12.344 4.27053 11.8128C2.55959 11.594 1.49025 10.7504 0.940448 9.15678C0.879413 9.00053 0.940448 8.84428 1.06252 8.75053C1.18508 8.65678 1.36818 8.65678 1.49025 8.71928C1.94875 9.03178 2.40725 9.09428 2.95705 9.09428C1.79592 8.37566 0.726581 7.18816 0.298847 5.71953C0.281269 5.62859 0.294452 5.52714 0.333026 5.44585C0.36037 5.3875 0.400409 5.33952 0.451679 5.3134C0.604511 5.21965 0.757343 5.2509 0.879413 5.34465C1.07082 5.50493 1.27248 5.63481 1.51223 5.73418C1.69289 5.80913 1.89553 5.86674 2.13185 5.90703C0.940448 4.65715 0.20705 2.81352 1.24611 0.782516L1.42922 0.407516L1.73488 0.720016C3.62892 2.75102 5.37062 3.68852 8.54787 4.3134V4.1884C8.54787 1.90739 10.2896 0.0325162 12.4585 0.0012662C13.314 0.0012662 14.5054 0.626266 14.9946 0.907516C15.0249 0.907516 15.0557 0.938766 15.0557 0.907516C15.6665 0.720016 16.3999 0.407516 17.2554 0.0325162C17.3775 -0.0299838 17.5303 0.0012662 17.6221 0.0950162C17.6641 0.138229 17.6934 0.188034 17.7066 0.244552C17.7222 0.310592 17.7158 0.385788 17.6831 0.470016C17.5303 0.907516 17.2857 1.37627 16.9195 1.81364L17.5303 1.59489ZM15.7354 3.73784L15.9131 3.67741C16.4761 3.46623 16.8023 3.01347 17.0098 2.62126L15.854 3.0136C15.7056 3.0739 15.5279 3.0136 15.4688 2.86272C15.4092 2.71172 15.439 2.53069 15.5576 2.44011C16.0318 2.04778 16.3872 1.62529 16.6543 1.17265C16.4141 1.27055 16.1831 1.36345 15.9644 1.44951C15.6436 1.57548 15.3477 1.68645 15.083 1.77617C15.0122 1.80022 14.9414 1.80986 14.8706 1.80705C14.7637 1.8029 14.6568 1.77031 14.5498 1.71587L14.5313 1.70537C14.1826 1.51164 13.0845 0.901535 12.4155 0.931198C10.6372 0.961349 9.21437 2.50053 9.21437 4.37163V5.2166L8.85891 5.1563C5.59865 4.55266 3.79055 3.67741 1.89357 1.77617C1.00441 4.06975 2.84182 5.66936 3.46437 6.12199L4.2051 6.66521H3.28664C2.69387 6.66521 2.04152 6.6049 1.44875 6.3333C2.10109 7.72148 3.43459 8.7476 4.56105 9.07964L4.47219 9.68315C4.35549 9.68315 4.23879 9.68315 4.12209 9.68681C4.00148 9.69048 3.88137 9.69804 3.76076 9.7133C3.36232 9.73271 2.9883 9.73967 2.63039 9.69463C2.42922 9.66936 2.23342 9.62761 2.04152 9.56242C2.6343 10.7093 3.67189 11.1922 5.36135 11.1922H6.25051L5.5093 11.7354C4.59084 12.4596 3.40529 13.1236 1.35988 13.2746C2.33791 13.7574 4.14601 14.2101 6.84328 14.2101C11.4644 14.2101 15.7354 9.49907 15.7354 4.2509V3.73784Z" transform="translate(3 4.5)" fill="white"/>
<mask id="mask0" mask-type="alpha" maskUnits="userSpaceOnUse" x="3" y="4" width="19" height="16">
<path id="Shape_2" fill-rule="evenodd" clip-rule="evenodd" d="M17.5303 1.59489C17.6524 1.56364 17.8052 1.59489 17.897 1.68864C17.9883 1.78239 18.0191 1.93864 17.9888 2.06364C17.7134 2.96977 17.1636 3.62602 16.4917 3.96977V4.0634C16.4917 10.0942 12.0918 15 6.71486 15C3.69045 15 1.24611 14.4688 0.146015 13.5627C0.0239444 13.4377 -0.0370908 13.2814 0.0239444 13.0939C0.0849795 12.9377 0.237812 12.8127 0.420917 12.8127C2.22365 12.7814 3.38478 12.344 4.27053 11.8128C2.55959 11.594 1.49025 10.7504 0.940448 9.15678C0.879413 9.00053 0.940448 8.84428 1.06252 8.75053C1.18508 8.65678 1.36818 8.65678 1.49025 8.71928C1.94875 9.03178 2.40725 9.09428 2.95705 9.09428C1.79592 8.37566 0.726581 7.18816 0.298847 5.71953C0.281269 5.62859 0.294452 5.52714 0.333026 5.44585C0.36037 5.3875 0.400409 5.33952 0.451679 5.3134C0.604511 5.21965 0.757343 5.2509 0.879413 5.34465C1.07082 5.50493 1.27248 5.63481 1.51223 5.73418C1.69289 5.80913 1.89553 5.86674 2.13185 5.90703C0.940448 4.65715 0.20705 2.81352 1.24611 0.782516L1.42922 0.407516L1.73488 0.720016C3.62892 2.75102 5.37062 3.68852 8.54787 4.3134V4.1884C8.54787 1.90739 10.2896 0.0325162 12.4585 0.0012662C13.314 0.0012662 14.5054 0.626266 14.9946 0.907516C15.0249 0.907516 15.0557 0.938766 15.0557 0.907516C15.6665 0.720016 16.3999 0.407516 17.2554 0.0325162C17.3775 -0.0299838 17.5303 0.0012662 17.6221 0.0950162C17.6641 0.138229 17.6934 0.188034 17.7066 0.244552C17.7222 0.310592 17.7158 0.385788 17.6831 0.470016C17.5303 0.907516 17.2857 1.37627 16.9195 1.81364L17.5303 1.59489ZM15.7354 3.73784L15.9131 3.67741C16.4761 3.46623 16.8023 3.01347 17.0098 2.62126L15.854 3.0136C15.7056 3.0739 15.5279 3.0136 15.4688 2.86272C15.4092 2.71172 15.439 2.53069 15.5576 2.44011C16.0318 2.04778 16.3872 1.62529 16.6543 1.17265C16.4141 1.27055 16.1831 1.36345 15.9644 1.44951C15.6436 1.57548 15.3477 1.68645 15.083 1.77617C15.0122 1.80022 14.9414 1.80986 14.8706 1.80705C14.7637 1.8029 14.6568 1.77031 14.5498 1.71587L14.5313 1.70537C14.1826 1.51164 13.0845 0.901535 12.4155 0.931198C10.6372 0.961349 9.21437 2.50053 9.21437 4.37163V5.2166L8.85891 5.1563C5.59865 4.55266 3.79055 3.67741 1.89357 1.77617C1.00441 4.06975 2.84182 5.66936 3.46437 6.12199L4.2051 6.66521H3.28664C2.69387 6.66521 2.04152 6.6049 1.44875 6.3333C2.10109 7.72148 3.43459 8.7476 4.56105 9.07964L4.47219 9.68315C4.35549 9.68315 4.23879 9.68315 4.12209 9.68681C4.00148 9.69048 3.88137 9.69804 3.76076 9.7133C3.36232 9.73271 2.9883 9.73967 2.63039 9.69463C2.42922 9.66936 2.23342 9.62761 2.04152 9.56242C2.6343 10.7093 3.67189 11.1922 5.36135 11.1922H6.25051L5.5093 11.7354C4.59084 12.4596 3.40529 13.1236 1.35988 13.2746C2.33791 13.7574 4.14601 14.2101 6.84328 14.2101C11.4644 14.2101 15.7354 9.49907 15.7354 4.2509V3.73784Z" transform="translate(3 4.5)" fill="white"/>
</mask>
<g mask="url(#mask0)">
</g>
</g>
</svg>
