<svg width="7" height="14" viewBox="0 0 7 14" fill="none" xmlns="http://www.w3.org/2000/svg">
<g id="world">
<path id="Shape" fill-rule="evenodd" clip-rule="evenodd" d="M2.69092 4.23071C2.22998 2.01544 0.842285 0.349487 0 0V4.34302C0.425293 4.33777 0.917969 4.32422 1.39697 4.3045C1.86719 4.28516 2.32422 4.25989 2.69092 4.23071ZM5.2168 3.86786C4.88818 3.94275 4.35986 4.04346 3.59863 4.13361C3.3208 2.6571 2.81982 1.39899 2.1665 0.490662C3.66455 1.13995 4.88281 2.30878 5.60449 3.76727C5.5459 3.78528 5.41943 3.82166 5.2168 3.86786ZM0 5.32153C0.842285 5.31061 2.02246 5.26428 2.80615 5.19916C2.84082 5.47595 2.86133 5.758 2.87354 6.04474C2.88379 6.29474 2.88721 6.5484 2.88721 6.80536C2.88721 7.51379 2.86182 8.20099 2.75732 8.85022C1.98584 8.7879 0.842285 8.74304 0 8.73291V5.32153ZM0 9.71143V13.611C0.842285 13.285 2.08887 11.8119 2.58887 9.81671C2.17969 9.78522 1.67334 9.75885 1.15771 9.74005L0.939453 9.73254L0.697266 9.7254C0.458008 9.71887 0.222656 9.71411 0 9.71143ZM2.1665 13.1205C2.75537 12.302 3.22461 11.2034 3.51367 9.91296C4.48193 10.0244 5.09131 10.1541 5.39893 10.2316C4.65869 11.5159 3.52539 12.5287 2.1665 13.1205ZM3.74707 5.10089C3.89453 6.37988 3.875 7.67267 3.68799 8.94653C4.88281 9.08661 5.5625 9.25555 5.83301 9.33447C6.14453 8.55072 6.32129 7.69879 6.32129 6.80536C6.3208 5.92218 6.14941 5.04749 5.81592 4.22961L5.97412 4.6759C5.92969 4.69165 5.25977 4.91931 3.74707 5.10089Z" transform="translate(0.420898 0.195801)" fill="white"/>
</g>
</svg>
