<svg width="7" height="14" viewBox="0 0 7 14" fill="none" xmlns="http://www.w3.org/2000/svg">
<g id="world">
<path id="Shape" fill-rule="evenodd" clip-rule="evenodd" d="M2.69092 4.23071C2.22998 2.01538 0.842285 0.349487 0 0V4.34302C0.842285 4.33264 1.9502 4.28967 2.69092 4.23071ZM5.60449 3.76721C5.45117 3.81433 4.8291 3.98792 3.59863 4.13354C3.3208 2.6571 2.81982 1.39893 2.1665 0.490601C3.66455 1.13989 4.88281 2.30872 5.60449 3.76721ZM1.57129 5.27417C2.01855 5.25391 2.45264 5.22839 2.80615 5.1991C2.87061 5.71729 2.88721 6.25366 2.88721 6.8053C2.88721 6.99829 2.88525 7.18958 2.88037 7.37903C2.87695 7.51892 2.87158 7.65784 2.86426 7.79553C2.84521 8.15588 2.8125 8.5083 2.75732 8.85022C1.98584 8.78784 0.842285 8.74292 0 8.73291V5.32153C0.462402 5.31555 1.02686 5.29883 1.57129 5.27417ZM0 9.71143V13.611C0.842285 13.285 2.08887 11.8119 2.58887 9.81665C2.46826 9.80737 2.33887 9.79858 2.20361 9.79028C1.90527 9.77185 1.57666 9.75598 1.24268 9.74316C0.821777 9.72717 0.391113 9.71619 0 9.71143ZM2.1665 13.1205C2.75537 12.302 3.22461 11.2034 3.51367 9.91296C4.48193 10.0244 5.09131 10.1541 5.39893 10.2316C4.65869 11.516 3.52539 12.5287 2.1665 13.1205ZM3.74707 5.10095C3.89453 6.37988 3.875 7.67273 3.68799 8.94653C4.88281 9.08655 5.5625 9.25562 5.83301 9.33447C6.14453 8.55078 6.32129 7.69885 6.32129 6.8053C6.3208 5.92212 6.14941 5.04749 5.81592 4.22961L5.97412 4.6759C5.92969 4.69165 5.25977 4.91931 3.74707 5.10095Z" transform="translate(0.420898 0.195801)" fill="white"/>
</g>
</svg>
